<?xml version="1.0" encoding="UTF-8"?> <svg xmlns="http://www.w3.org/2000/svg" width="34" height="37" viewBox="0 0 34 37" fill="none"> <path d="M0.675181 23.43C1.13697 23.2412 1.59879 23.0503 2.06077 22.862C3.26652 22.3706 4.46658 21.8651 5.6511 21.3227C6.8582 20.7705 8.04809 20.1847 9.1766 19.4796C10.1476 18.8728 11.0543 18.1853 11.8025 17.2999C12.7359 16.1952 13.2321 14.9032 13.4027 13.4659C13.5586 12.1572 13.4771 10.8525 13.3204 9.54857C13.1258 7.93451 12.8116 6.34122 12.4716 4.75183C12.1434 3.21767 11.7813 1.69134 11.4203 0.164635C11.4142 0.143423 11.4163 0.12071 11.4262 0.101166C11.5884 0.515549 11.7502 0.930268 11.9116 1.34532C12.3994 2.59697 12.8925 3.84834 13.4119 5.08467C13.8692 6.17115 14.3431 7.25041 14.8682 8.30553C15.4869 9.55136 16.1694 10.7548 17.0289 11.8511C18.4667 13.6839 20.3358 14.6463 22.6288 14.7803C23.8596 14.8529 25.0807 14.7642 26.2975 14.6049C28.106 14.367 29.8912 14.0042 31.6718 13.6181C32.2781 13.4864 32.8848 13.3559 33.5037 13.2538C33.3752 13.3088 33.2479 13.3656 33.1184 13.4175C31.5538 14.0452 29.9954 14.6882 28.4635 15.3928C26.9815 16.0736 25.5229 16.7992 24.1883 17.7499C23.2384 18.4268 22.3936 19.2115 21.7733 20.2195C21.1379 21.2506 20.8355 22.3898 20.7332 23.5956C20.6253 24.8962 20.7259 26.1909 20.8972 27.4828C21.143 29.333 21.5204 31.16 21.9335 32.9821C22.2021 34.1622 22.4793 35.3396 22.7524 36.519C22.7592 36.5404 22.7574 36.5636 22.7476 36.5835C22.6514 36.3395 22.5528 36.0962 22.4591 35.8514C21.8946 34.3832 21.3171 32.919 20.7022 31.4666C19.9607 29.7158 19.1856 27.9802 18.1938 26.3566C17.5512 25.3031 16.8198 24.3238 15.8667 23.5292C14.675 22.5356 13.289 22.064 11.7763 21.9304C10.5817 21.8226 9.39516 21.9012 8.21155 22.0434C6.62095 22.234 5.04948 22.5317 3.48482 22.8643C2.57083 23.0582 1.65897 23.2589 0.746567 23.4557C0.723728 23.4597 0.700673 23.4623 0.677516 23.4635L0.675181 23.43Z" fill="#BCF085"></path> </svg> 