<?xml version="1.0" encoding="UTF-8"?> <svg xmlns="http://www.w3.org/2000/svg" width="455" height="84" viewBox="0 0 455 84" fill="none"> <rect x="0.5" y="0.5" width="454" height="83" rx="41.5" stroke="#1DD0CC"></rect> <path d="M42.1297 40.442H51.6337C51.6337 42.548 51.2557 44.339 50.4997 45.815C49.7437 47.273 48.6727 48.38 47.2867 49.136C45.9187 49.892 44.3167 50.27 42.4807 50.27C40.4827 50.27 38.7187 49.847 37.1887 49.001C35.6767 48.155 34.5067 47.003 33.6787 45.545C32.8507 44.069 32.4367 42.422 32.4367 40.604C32.4367 38.858 32.8237 37.247 33.5977 35.771C34.3717 34.277 35.5147 33.08 37.0267 32.18C38.5387 31.28 40.3567 30.83 42.4807 30.83C43.9207 30.83 45.2887 31.055 46.5847 31.505C47.8987 31.937 49.0597 32.648 50.0677 33.638L48.6637 35.312C47.8357 34.412 46.8637 33.764 45.7477 33.368C44.6497 32.972 43.5157 32.774 42.3457 32.774C40.7797 32.774 39.4117 33.143 38.2417 33.881C37.0717 34.619 36.1807 35.591 35.5687 36.797C34.9567 37.985 34.6507 39.263 34.6507 40.631C34.6507 42.071 34.9837 43.376 35.6497 44.546C36.3337 45.716 37.2787 46.643 38.4847 47.327C39.7087 47.993 41.0857 48.326 42.6157 48.326C44.4517 48.326 45.9907 47.831 47.2327 46.841C48.4927 45.833 49.2847 44.366 49.6087 42.44H42.1297V40.442ZM65.4788 44.438H55.6508C55.7228 45.662 56.1548 46.643 56.9468 47.381C57.7568 48.101 58.7558 48.461 59.9438 48.461C60.6998 48.461 61.4018 48.317 62.0498 48.029C62.7158 47.723 63.2468 47.309 63.6428 46.787L64.9118 47.948C64.3538 48.686 63.6248 49.253 62.7248 49.649C61.8248 50.027 60.8618 50.216 59.8358 50.216C58.6658 50.216 57.6128 49.964 56.6768 49.46C55.7408 48.956 55.0028 48.245 54.4628 47.327C53.9408 46.391 53.6798 45.302 53.6798 44.06C53.6798 42.782 53.9588 41.684 54.5168 40.766C55.0748 39.83 55.8128 39.119 56.7308 38.633C57.6668 38.147 58.6748 37.904 59.7548 37.904C60.9248 37.904 61.9418 38.183 62.8058 38.741C63.6698 39.299 64.3268 40.028 64.7768 40.928C65.2448 41.828 65.4788 42.773 65.4788 43.763V44.438ZM55.7588 42.791H63.4538C63.2738 41.873 62.8238 41.126 62.1038 40.55C61.3838 39.956 60.5378 39.659 59.5658 39.659C58.6298 39.659 57.8108 39.938 57.1088 40.496C56.4248 41.054 55.9748 41.819 55.7588 42.791ZM73.5461 48.299V50.027C73.0961 50.099 72.6371 50.135 72.1691 50.135C70.8731 50.135 69.9281 49.829 69.3341 49.217C68.7401 48.587 68.4431 47.57 68.4431 46.166V39.875H66.4181V38.12H68.4431V33.8H70.3871V38.12H73.4381V39.875H70.3871V45.896C70.3871 46.706 70.5221 47.327 70.7921 47.759C71.0801 48.173 71.6381 48.38 72.4661 48.38C72.8081 48.38 73.1681 48.353 73.5461 48.299ZM88.0881 48.299V50.027C87.6381 50.099 87.1791 50.135 86.7111 50.135C85.4151 50.135 84.4701 49.829 83.8761 49.217C83.2821 48.587 82.9851 47.57 82.9851 46.166V39.875H80.9601V38.12H82.9851V33.8H84.9291V38.12H87.9801V39.875H84.9291V45.896C84.9291 46.706 85.0641 47.327 85.3341 47.759C85.6221 48.173 86.1801 48.38 87.0081 48.38C87.3501 48.38 87.7101 48.353 88.0881 48.299ZM89.4875 44.006C89.4875 42.854 89.7485 41.819 90.2705 40.901C90.8105 39.965 91.5395 39.236 92.4575 38.714C93.3755 38.174 94.4105 37.904 95.5625 37.904C96.7145 37.904 97.7495 38.174 98.6675 38.714C99.5855 39.236 100.305 39.965 100.827 40.901C101.349 41.819 101.61 42.854 101.61 44.006C101.61 45.176 101.34 46.238 100.8 47.192C100.278 48.128 99.5585 48.866 98.6405 49.406C97.7225 49.946 96.6965 50.216 95.5625 50.216C94.4285 50.216 93.3935 49.946 92.4575 49.406C91.5395 48.848 90.8105 48.101 90.2705 47.165C89.7485 46.211 89.4875 45.158 89.4875 44.006ZM99.6665 44.006C99.6665 42.71 99.2885 41.666 98.5325 40.874C97.7765 40.064 96.7865 39.659 95.5625 39.659C94.3385 39.659 93.3395 40.064 92.5655 40.874C91.8095 41.666 91.4315 42.71 91.4315 44.006C91.4315 45.32 91.8185 46.391 92.5925 47.219C93.3665 48.047 94.3565 48.461 95.5625 48.461C96.7685 48.461 97.7495 48.047 98.5055 47.219C99.2795 46.391 99.6665 45.32 99.6665 44.006ZM116.757 48.299V50.027C116.307 50.099 115.848 50.135 115.38 50.135C114.084 50.135 113.139 49.829 112.545 49.217C111.951 48.587 111.654 47.57 111.654 46.166V39.875H109.629V38.12H111.654V33.8H113.598V38.12H116.649V39.875H113.598V45.896C113.598 46.706 113.733 47.327 114.003 47.759C114.291 48.173 114.849 48.38 115.677 48.38C116.019 48.38 116.379 48.353 116.757 48.299ZM129.28 42.656V50H127.336V43.088C127.336 42.008 127.057 41.198 126.499 40.658C125.959 40.118 125.257 39.848 124.393 39.848C123.367 39.848 122.539 40.226 121.909 40.982C121.297 41.738 120.991 42.71 120.991 43.898V50H119.047V31.1H120.991V39.875C121.369 39.317 121.9 38.858 122.584 38.498C123.268 38.138 124.024 37.958 124.852 37.958C126.148 37.958 127.21 38.381 128.038 39.227C128.866 40.073 129.28 41.216 129.28 42.656ZM143.765 44.438H133.937C134.009 45.662 134.441 46.643 135.233 47.381C136.043 48.101 137.042 48.461 138.23 48.461C138.986 48.461 139.688 48.317 140.336 48.029C141.002 47.723 141.533 47.309 141.929 46.787L143.198 47.948C142.64 48.686 141.911 49.253 141.011 49.649C140.111 50.027 139.148 50.216 138.122 50.216C136.952 50.216 135.899 49.964 134.963 49.46C134.027 48.956 133.289 48.245 132.749 47.327C132.227 46.391 131.966 45.302 131.966 44.06C131.966 42.782 132.245 41.684 132.803 40.766C133.361 39.83 134.099 39.119 135.017 38.633C135.953 38.147 136.961 37.904 138.041 37.904C139.211 37.904 140.228 38.183 141.092 38.741C141.956 39.299 142.613 40.028 143.063 40.928C143.531 41.828 143.765 42.773 143.765 43.763V44.438ZM134.045 42.791H141.74C141.56 41.873 141.11 41.126 140.39 40.55C139.67 39.956 138.824 39.659 137.852 39.659C136.916 39.659 136.097 39.938 135.395 40.496C134.711 41.054 134.261 41.819 134.045 42.791ZM152.177 44.006C152.177 42.854 152.438 41.819 152.96 40.901C153.5 39.965 154.229 39.236 155.147 38.714C156.065 38.174 157.1 37.904 158.252 37.904C159.404 37.904 160.439 38.174 161.357 38.714C162.275 39.236 162.995 39.965 163.517 40.901C164.039 41.819 164.3 42.854 164.3 44.006C164.3 45.176 164.03 46.238 163.49 47.192C162.968 48.128 162.248 48.866 161.33 49.406C160.412 49.946 159.386 50.216 158.252 50.216C157.118 50.216 156.083 49.946 155.147 49.406C154.229 48.848 153.5 48.101 152.96 47.165C152.438 46.211 152.177 45.158 152.177 44.006ZM162.356 44.006C162.356 42.71 161.978 41.666 161.222 40.874C160.466 40.064 159.476 39.659 158.252 39.659C157.028 39.659 156.029 40.064 155.255 40.874C154.499 41.666 154.121 42.71 154.121 44.006C154.121 45.32 154.508 46.391 155.282 47.219C156.056 48.047 157.046 48.461 158.252 48.461C159.458 48.461 160.439 48.047 161.195 47.219C161.969 46.391 162.356 45.32 162.356 44.006ZM172.703 48.299V50.027C172.253 50.099 171.794 50.135 171.326 50.135C170.03 50.135 169.085 49.829 168.491 49.217C167.897 48.587 167.6 47.57 167.6 46.166V39.875H165.575V38.12H167.6V33.8H169.544V38.12H172.595V39.875H169.544V45.896C169.544 46.706 169.679 47.327 169.949 47.759C170.237 48.173 170.795 48.38 171.623 48.38C171.965 48.38 172.325 48.353 172.703 48.299ZM185.226 42.656V50H183.282V43.088C183.282 42.008 183.003 41.198 182.445 40.658C181.905 40.118 181.203 39.848 180.339 39.848C179.313 39.848 178.485 40.226 177.855 40.982C177.243 41.738 176.937 42.71 176.937 43.898V50H174.993V31.1H176.937V39.875C177.315 39.317 177.846 38.858 178.53 38.498C179.214 38.138 179.97 37.958 180.798 37.958C182.094 37.958 183.156 38.381 183.984 39.227C184.812 40.073 185.226 41.216 185.226 42.656ZM199.711 44.438H189.883C189.955 45.662 190.387 46.643 191.179 47.381C191.989 48.101 192.988 48.461 194.176 48.461C194.932 48.461 195.634 48.317 196.282 48.029C196.948 47.723 197.479 47.309 197.875 46.787L199.144 47.948C198.586 48.686 197.857 49.253 196.957 49.649C196.057 50.027 195.094 50.216 194.068 50.216C192.898 50.216 191.845 49.964 190.909 49.46C189.973 48.956 189.235 48.245 188.695 47.327C188.173 46.391 187.912 45.302 187.912 44.06C187.912 42.782 188.191 41.684 188.749 40.766C189.307 39.83 190.045 39.119 190.963 38.633C191.899 38.147 192.907 37.904 193.987 37.904C195.157 37.904 196.174 38.183 197.038 38.741C197.902 39.299 198.559 40.028 199.009 40.928C199.477 41.828 199.711 42.773 199.711 43.763V44.438ZM189.991 42.791H197.686C197.506 41.873 197.056 41.126 196.336 40.55C195.616 39.956 194.77 39.659 193.798 39.659C192.862 39.659 192.043 39.938 191.341 40.496C190.657 41.054 190.207 41.819 189.991 42.791ZM208.129 38.039V39.983C207.643 39.893 207.202 39.848 206.806 39.848C205.762 39.848 205.069 40.172 204.727 40.82C204.385 41.45 204.214 42.404 204.214 43.682V50H202.27V38.12H204.106V39.713C204.7 38.543 205.69 37.958 207.076 37.958C207.49 37.958 207.841 37.985 208.129 38.039ZM216.105 48.299L217.185 46.895C218.157 47.975 219.381 48.515 220.857 48.515C221.667 48.515 222.324 48.353 222.828 48.029C223.35 47.705 223.611 47.255 223.611 46.679C223.611 46.121 223.377 45.707 222.909 45.437C222.441 45.167 221.703 44.888 220.695 44.6C219.849 44.366 219.165 44.141 218.643 43.925C218.139 43.709 217.707 43.385 217.347 42.953C216.987 42.521 216.807 41.954 216.807 41.252C216.807 40.154 217.23 39.317 218.076 38.741C218.922 38.147 219.993 37.85 221.289 37.85C222.189 37.85 222.945 37.994 223.557 38.282C224.187 38.552 224.745 38.921 225.231 39.389L224.097 40.847C223.737 40.433 223.332 40.127 222.882 39.929C222.45 39.713 221.91 39.605 221.262 39.605C220.488 39.605 219.876 39.749 219.426 40.037C218.976 40.307 218.751 40.667 218.751 41.117C218.751 41.639 218.967 42.017 219.399 42.251C219.849 42.485 220.551 42.719 221.505 42.953C222.351 43.169 223.044 43.385 223.584 43.601C224.124 43.817 224.583 44.159 224.961 44.627C225.357 45.077 225.555 45.698 225.555 46.49C225.555 47.696 225.105 48.632 224.205 49.298C223.323 49.946 222.216 50.27 220.884 50.27C219.012 50.27 217.419 49.613 216.105 48.299ZM230.885 50H228.941V38.12H230.885V50ZM228.617 33.854C228.617 33.512 228.743 33.224 228.995 32.99C229.265 32.756 229.58 32.639 229.94 32.639C230.3 32.639 230.597 32.756 230.831 32.99C231.083 33.224 231.209 33.512 231.209 33.854C231.209 34.196 231.083 34.493 230.831 34.745C230.579 34.997 230.282 35.123 229.94 35.123C229.58 35.123 229.265 34.997 228.995 34.745C228.743 34.493 228.617 34.196 228.617 33.854ZM244.012 31.1H245.956V50H244.12V47.786C243.778 48.506 243.22 49.091 242.446 49.541C241.672 49.991 240.79 50.216 239.8 50.216C238.774 50.216 237.82 49.964 236.938 49.46C236.056 48.956 235.354 48.245 234.832 47.327C234.31 46.391 234.049 45.302 234.049 44.06C234.049 42.836 234.301 41.756 234.805 40.82C235.327 39.884 236.02 39.164 236.884 38.66C237.766 38.156 238.738 37.904 239.8 37.904C240.826 37.904 241.699 38.111 242.419 38.525C243.157 38.921 243.688 39.416 244.012 40.01V31.1ZM244.012 44.141V43.871C244.012 43.133 243.859 42.449 243.553 41.819C243.247 41.189 242.788 40.685 242.176 40.307C241.582 39.911 240.871 39.713 240.043 39.713C238.873 39.713 237.919 40.1 237.181 40.874C236.443 41.63 236.074 42.683 236.074 44.033C236.074 45.347 236.434 46.409 237.154 47.219C237.874 48.011 238.819 48.407 239.989 48.407C240.817 48.407 241.537 48.209 242.149 47.813C242.761 47.399 243.22 46.868 243.526 46.22C243.85 45.554 244.012 44.861 244.012 44.141ZM260.107 44.438H250.279C250.351 45.662 250.783 46.643 251.575 47.381C252.385 48.101 253.384 48.461 254.572 48.461C255.328 48.461 256.03 48.317 256.678 48.029C257.344 47.723 257.875 47.309 258.271 46.787L259.54 47.948C258.982 48.686 258.253 49.253 257.353 49.649C256.453 50.027 255.49 50.216 254.464 50.216C253.294 50.216 252.241 49.964 251.305 49.46C250.369 48.956 249.631 48.245 249.091 47.327C248.569 46.391 248.308 45.302 248.308 44.06C248.308 42.782 248.587 41.684 249.145 40.766C249.703 39.83 250.441 39.119 251.359 38.633C252.295 38.147 253.303 37.904 254.383 37.904C255.553 37.904 256.57 38.183 257.434 38.741C258.298 39.299 258.955 40.028 259.405 40.928C259.873 41.828 260.107 42.773 260.107 43.763V44.438ZM250.387 42.791H258.082C257.902 41.873 257.452 41.126 256.732 40.55C256.012 39.956 255.166 39.659 254.194 39.659C253.258 39.659 252.439 39.938 251.737 40.496C251.053 41.054 250.603 41.819 250.387 42.791ZM268.519 44.006C268.519 42.854 268.78 41.819 269.302 40.901C269.842 39.965 270.571 39.236 271.489 38.714C272.407 38.174 273.442 37.904 274.594 37.904C275.746 37.904 276.781 38.174 277.699 38.714C278.617 39.236 279.337 39.965 279.859 40.901C280.381 41.819 280.642 42.854 280.642 44.006C280.642 45.176 280.372 46.238 279.832 47.192C279.31 48.128 278.59 48.866 277.672 49.406C276.754 49.946 275.728 50.216 274.594 50.216C273.46 50.216 272.425 49.946 271.489 49.406C270.571 48.848 269.842 48.101 269.302 47.165C268.78 46.211 268.519 45.158 268.519 44.006ZM278.698 44.006C278.698 42.71 278.32 41.666 277.564 40.874C276.808 40.064 275.818 39.659 274.594 39.659C273.37 39.659 272.371 40.064 271.597 40.874C270.841 41.666 270.463 42.71 270.463 44.006C270.463 45.32 270.85 46.391 271.624 47.219C272.398 48.047 273.388 48.461 274.594 48.461C275.8 48.461 276.781 48.047 277.537 47.219C278.311 46.391 278.698 45.32 278.698 44.006ZM285.885 35.582V38.12H288.828V39.875H285.885V50H283.941V39.875H281.916V38.12H283.941V35.447C283.941 33.935 284.319 32.81 285.075 32.072C285.831 31.334 286.857 30.965 288.153 30.965C288.441 30.965 288.72 30.992 288.99 31.046V32.882C288.864 32.864 288.702 32.855 288.504 32.855C287.64 32.855 286.983 33.053 286.533 33.449C286.101 33.845 285.885 34.556 285.885 35.582ZM303.217 48.299V50.027C302.767 50.099 302.308 50.135 301.84 50.135C300.544 50.135 299.599 49.829 299.005 49.217C298.411 48.587 298.114 47.57 298.114 46.166V39.875H296.089V38.12H298.114V33.8H300.058V38.12H303.109V39.875H300.058V45.896C300.058 46.706 300.193 47.327 300.463 47.759C300.751 48.173 301.309 48.38 302.137 48.38C302.479 48.38 302.839 48.353 303.217 48.299ZM315.74 42.656V50H313.796V43.088C313.796 42.008 313.517 41.198 312.959 40.658C312.419 40.118 311.717 39.848 310.853 39.848C309.827 39.848 308.999 40.226 308.369 40.982C307.757 41.738 307.451 42.71 307.451 43.898V50H305.507V31.1H307.451V39.875C307.829 39.317 308.36 38.858 309.044 38.498C309.728 38.138 310.484 37.958 311.312 37.958C312.608 37.958 313.67 38.381 314.498 39.227C315.326 40.073 315.74 41.216 315.74 42.656ZM330.225 44.438H320.397C320.469 45.662 320.901 46.643 321.693 47.381C322.503 48.101 323.502 48.461 324.69 48.461C325.446 48.461 326.148 48.317 326.796 48.029C327.462 47.723 327.993 47.309 328.389 46.787L329.658 47.948C329.1 48.686 328.371 49.253 327.471 49.649C326.571 50.027 325.608 50.216 324.582 50.216C323.412 50.216 322.359 49.964 321.423 49.46C320.487 48.956 319.749 48.245 319.209 47.327C318.687 46.391 318.426 45.302 318.426 44.06C318.426 42.782 318.705 41.684 319.263 40.766C319.821 39.83 320.559 39.119 321.477 38.633C322.413 38.147 323.421 37.904 324.501 37.904C325.671 37.904 326.688 38.183 327.552 38.741C328.416 39.299 329.073 40.028 329.523 40.928C329.991 41.828 330.225 42.773 330.225 43.763V44.438ZM320.505 42.791H328.2C328.02 41.873 327.57 41.126 326.85 40.55C326.13 39.956 325.284 39.659 324.312 39.659C323.376 39.659 322.557 39.938 321.855 40.496C321.171 41.054 320.721 41.819 320.505 42.791ZM338.637 44.006C338.637 42.764 338.907 41.684 339.447 40.766C339.987 39.848 340.725 39.146 341.661 38.66C342.597 38.156 343.641 37.904 344.793 37.904C345.693 37.904 346.539 38.057 347.331 38.363C348.141 38.669 348.816 39.101 349.356 39.659L348.222 41.171C347.826 40.703 347.331 40.334 346.737 40.064C346.143 39.794 345.504 39.659 344.82 39.659C343.614 39.659 342.606 40.055 341.796 40.847C340.986 41.621 340.581 42.665 340.581 43.979C340.581 44.843 340.77 45.617 341.148 46.301C341.526 46.985 342.048 47.516 342.714 47.894C343.38 48.272 344.127 48.461 344.955 48.461C345.657 48.461 346.296 48.326 346.872 48.056C347.466 47.786 347.952 47.417 348.33 46.949L349.545 48.164C349.023 48.794 348.357 49.298 347.547 49.676C346.737 50.036 345.819 50.216 344.793 50.216C343.569 50.216 342.489 49.946 341.553 49.406C340.617 48.866 339.897 48.128 339.393 47.192C338.889 46.238 338.637 45.176 338.637 44.006ZM353.865 50H351.921V38.12H353.865V50ZM351.597 33.854C351.597 33.512 351.723 33.224 351.975 32.99C352.245 32.756 352.56 32.639 352.92 32.639C353.28 32.639 353.577 32.756 353.811 32.99C354.063 33.224 354.189 33.512 354.189 33.854C354.189 34.196 354.063 34.493 353.811 34.745C353.559 34.997 353.262 35.123 352.92 35.123C352.56 35.123 352.245 34.997 351.975 34.745C351.723 34.493 351.597 34.196 351.597 33.854ZM363.428 48.299V50.027C362.978 50.099 362.519 50.135 362.051 50.135C360.755 50.135 359.81 49.829 359.216 49.217C358.622 48.587 358.325 47.57 358.325 46.166V39.875H356.3V38.12H358.325V33.8H360.269V38.12H363.32V39.875H360.269V45.896C360.269 46.706 360.404 47.327 360.674 47.759C360.962 48.173 361.52 48.38 362.348 48.38C362.69 48.38 363.05 48.353 363.428 48.299ZM369.957 47.246L373.386 38.12H375.276V38.39L368.472 56.48H366.582V56.21L368.985 49.838L364.071 38.39V38.12H366.096L369.957 47.246ZM386.512 35.582V38.12H389.455V39.875H386.512V50H384.568V39.875H382.543V38.12H384.568V35.447C384.568 33.935 384.946 32.81 385.702 32.072C386.458 31.334 387.484 30.965 388.78 30.965C389.068 30.965 389.347 30.992 389.617 31.046V32.882C389.491 32.864 389.329 32.855 389.131 32.855C388.267 32.855 387.61 33.053 387.16 33.449C386.728 33.845 386.512 34.556 386.512 35.582ZM400.772 38.12H402.608V50H400.772V47.786C400.43 48.506 399.872 49.091 399.098 49.541C398.324 49.991 397.442 50.216 396.452 50.216C395.426 50.216 394.472 49.964 393.59 49.46C392.708 48.956 392.006 48.245 391.484 47.327C390.962 46.391 390.701 45.302 390.701 44.06C390.701 42.836 390.953 41.756 391.457 40.82C391.979 39.884 392.672 39.164 393.536 38.66C394.418 38.156 395.39 37.904 396.452 37.904C397.532 37.904 398.45 38.129 399.206 38.579C399.98 39.029 400.502 39.578 400.772 40.226V38.12ZM400.664 44.141V43.871C400.664 43.133 400.511 42.449 400.205 41.819C399.899 41.189 399.44 40.685 398.828 40.307C398.234 39.911 397.523 39.713 396.695 39.713C395.525 39.713 394.571 40.1 393.833 40.874C393.095 41.63 392.726 42.683 392.726 44.033C392.726 45.347 393.086 46.409 393.806 47.219C394.526 48.011 395.471 48.407 396.641 48.407C397.469 48.407 398.189 48.209 398.801 47.813C399.413 47.399 399.872 46.868 400.178 46.22C400.502 45.554 400.664 44.861 400.664 44.141ZM405.459 48.299L406.539 46.895C407.511 47.975 408.735 48.515 410.211 48.515C411.021 48.515 411.678 48.353 412.182 48.029C412.704 47.705 412.965 47.255 412.965 46.679C412.965 46.121 412.731 45.707 412.263 45.437C411.795 45.167 411.057 44.888 410.049 44.6C409.203 44.366 408.519 44.141 407.997 43.925C407.493 43.709 407.061 43.385 406.701 42.953C406.341 42.521 406.161 41.954 406.161 41.252C406.161 40.154 406.584 39.317 407.43 38.741C408.276 38.147 409.347 37.85 410.643 37.85C411.543 37.85 412.299 37.994 412.911 38.282C413.541 38.552 414.099 38.921 414.585 39.389L413.451 40.847C413.091 40.433 412.686 40.127 412.236 39.929C411.804 39.713 411.264 39.605 410.616 39.605C409.842 39.605 409.23 39.749 408.78 40.037C408.33 40.307 408.105 40.667 408.105 41.117C408.105 41.639 408.321 42.017 408.753 42.251C409.203 42.485 409.905 42.719 410.859 42.953C411.705 43.169 412.398 43.385 412.938 43.601C413.478 43.817 413.937 44.159 414.315 44.627C414.711 45.077 414.909 45.698 414.909 46.49C414.909 47.696 414.459 48.632 413.559 49.298C412.677 49.946 411.57 50.27 410.238 50.27C408.366 50.27 406.773 49.613 405.459 48.299ZM423.27 48.299V50.027C422.82 50.099 422.361 50.135 421.893 50.135C420.597 50.135 419.652 49.829 419.058 49.217C418.464 48.587 418.167 47.57 418.167 46.166V39.875H416.142V38.12H418.167V33.8H420.111V38.12H423.162V39.875H420.111V45.896C420.111 46.706 420.246 47.327 420.516 47.759C420.804 48.173 421.362 48.38 422.19 48.38C422.532 48.38 422.892 48.353 423.27 48.299Z" fill="#F4F4F4"></path> </svg> 