<?xml version="1.0" encoding="UTF-8"?> <svg xmlns="http://www.w3.org/2000/svg" width="680" height="84" viewBox="0 0 680 84" fill="none"> <rect x="0.5" y="0.5" width="679" height="83" rx="41.5" stroke="#1DD0CC"></rect> <path d="M51.1356 51.433V52H48.7866L42.3066 44.278H40.2546V52H38.0946V33.1H43.3596C44.5656 33.1 45.6276 33.343 46.5456 33.829C47.4636 34.315 48.1656 34.981 48.6516 35.827C49.1556 36.673 49.4076 37.609 49.4076 38.635C49.4076 39.985 48.9936 41.164 48.1656 42.172C47.3556 43.18 46.2576 43.828 44.8716 44.116L51.1356 51.433ZM40.2546 35.098V42.28H43.0896C44.3676 42.28 45.3666 41.938 46.0866 41.254C46.8246 40.57 47.1936 39.706 47.1936 38.662C47.1936 37.618 46.8246 36.763 46.0866 36.097C45.3666 35.431 44.3676 35.098 43.0896 35.098H40.2546ZM55.3673 52H53.4233V40.12H55.3673V52ZM53.0993 35.854C53.0993 35.512 53.2253 35.224 53.4773 34.99C53.7473 34.756 54.0623 34.639 54.4223 34.639C54.7823 34.639 55.0793 34.756 55.3133 34.99C55.5653 35.224 55.6913 35.512 55.6913 35.854C55.6913 36.196 55.5653 36.493 55.3133 36.745C55.0613 36.997 54.7643 37.123 54.4223 37.123C54.0623 37.123 53.7473 36.997 53.4773 36.745C53.2253 36.493 53.0993 36.196 53.0993 35.854ZM68.4943 33.1H70.4383V52H68.6023V49.786C68.2603 50.506 67.7023 51.091 66.9283 51.541C66.1543 51.991 65.2723 52.216 64.2823 52.216C63.2563 52.216 62.3023 51.964 61.4203 51.46C60.5383 50.956 59.8363 50.245 59.3143 49.327C58.7923 48.391 58.5313 47.302 58.5313 46.06C58.5313 44.836 58.7833 43.756 59.2873 42.82C59.8093 41.884 60.5023 41.164 61.3663 40.66C62.2483 40.156 63.2203 39.904 64.2823 39.904C65.3083 39.904 66.1813 40.111 66.9013 40.525C67.6393 40.921 68.1703 41.416 68.4943 42.01V33.1ZM68.4943 46.141V45.871C68.4943 45.133 68.3413 44.449 68.0353 43.819C67.7293 43.189 67.2703 42.685 66.6583 42.307C66.0643 41.911 65.3533 41.713 64.5253 41.713C63.3553 41.713 62.4013 42.1 61.6633 42.874C60.9253 43.63 60.5563 44.683 60.5563 46.033C60.5563 47.347 60.9163 48.409 61.6363 49.219C62.3563 50.011 63.3013 50.407 64.4713 50.407C65.2993 50.407 66.0193 50.209 66.6313 49.813C67.2433 49.399 67.7023 48.868 68.0083 48.22C68.3323 47.554 68.4943 46.861 68.4943 46.141ZM84.5886 46.438H74.7606C74.8326 47.662 75.2646 48.643 76.0566 49.381C76.8666 50.101 77.8656 50.461 79.0536 50.461C79.8096 50.461 80.5116 50.317 81.1596 50.029C81.8256 49.723 82.3566 49.309 82.7526 48.787L84.0216 49.948C83.4636 50.686 82.7346 51.253 81.8346 51.649C80.9346 52.027 79.9716 52.216 78.9456 52.216C77.7756 52.216 76.7226 51.964 75.7866 51.46C74.8506 50.956 74.1126 50.245 73.5726 49.327C73.0506 48.391 72.7896 47.302 72.7896 46.06C72.7896 44.782 73.0686 43.684 73.6266 42.766C74.1846 41.83 74.9226 41.119 75.8406 40.633C76.7766 40.147 77.7846 39.904 78.8646 39.904C80.0346 39.904 81.0516 40.183 81.9156 40.741C82.7796 41.299 83.4366 42.028 83.8866 42.928C84.3546 43.828 84.5886 44.773 84.5886 45.763V46.438ZM74.8686 44.791H82.5636C82.3836 43.873 81.9336 43.126 81.2136 42.55C80.4936 41.956 79.6476 41.659 78.6756 41.659C77.7396 41.659 76.9206 41.938 76.2186 42.496C75.5346 43.054 75.0846 43.819 74.8686 44.791ZM103.072 40.12H104.908V52H103.072V49.786C102.73 50.506 102.172 51.091 101.398 51.541C100.624 51.991 99.7416 52.216 98.7516 52.216C97.7256 52.216 96.7716 51.964 95.8896 51.46C95.0076 50.956 94.3056 50.245 93.7836 49.327C93.2616 48.391 93.0006 47.302 93.0006 46.06C93.0006 44.836 93.2526 43.756 93.7566 42.82C94.2786 41.884 94.9716 41.164 95.8356 40.66C96.7176 40.156 97.6896 39.904 98.7516 39.904C99.8316 39.904 100.75 40.129 101.506 40.579C102.28 41.029 102.802 41.578 103.072 42.226V40.12ZM102.964 46.141V45.871C102.964 45.133 102.811 44.449 102.505 43.819C102.199 43.189 101.74 42.685 101.128 42.307C100.534 41.911 99.8226 41.713 98.9946 41.713C97.8246 41.713 96.8706 42.1 96.1326 42.874C95.3946 43.63 95.0256 44.683 95.0256 46.033C95.0256 47.347 95.3856 48.409 96.1056 49.219C96.8256 50.011 97.7706 50.407 98.9406 50.407C99.7686 50.407 100.489 50.209 101.101 49.813C101.713 49.399 102.172 48.868 102.478 48.22C102.802 47.554 102.964 46.861 102.964 46.141ZM110.648 52H108.704V33.1H110.648V52ZM113.528 46.006C113.528 44.854 113.789 43.819 114.311 42.901C114.851 41.965 115.58 41.236 116.498 40.714C117.416 40.174 118.451 39.904 119.603 39.904C120.755 39.904 121.79 40.174 122.708 40.714C123.626 41.236 124.346 41.965 124.868 42.901C125.39 43.819 125.651 44.854 125.651 46.006C125.651 47.176 125.381 48.238 124.841 49.192C124.319 50.128 123.599 50.866 122.681 51.406C121.763 51.946 120.737 52.216 119.603 52.216C118.469 52.216 117.434 51.946 116.498 51.406C115.58 50.848 114.851 50.101 114.311 49.165C113.789 48.211 113.528 47.158 113.528 46.006ZM123.707 46.006C123.707 44.71 123.329 43.666 122.573 42.874C121.817 42.064 120.827 41.659 119.603 41.659C118.379 41.659 117.38 42.064 116.606 42.874C115.85 43.666 115.472 44.71 115.472 46.006C115.472 47.32 115.859 48.391 116.633 49.219C117.407 50.047 118.397 50.461 119.603 50.461C120.809 50.461 121.79 50.047 122.546 49.219C123.32 48.391 123.707 47.32 123.707 46.006ZM138.778 44.656V52H136.834V45.088C136.834 44.008 136.555 43.198 135.997 42.658C135.457 42.118 134.755 41.848 133.891 41.848C132.865 41.848 132.037 42.226 131.407 42.982C130.795 43.738 130.489 44.71 130.489 45.898V52H128.545V40.12H130.381V42.064C130.741 41.452 131.272 40.948 131.974 40.552C132.694 40.156 133.486 39.958 134.35 39.958C135.646 39.958 136.708 40.381 137.536 41.227C138.364 42.073 138.778 43.216 138.778 44.656ZM151.536 40.12H153.372V52.459C153.372 53.791 153.093 54.916 152.535 55.834C151.977 56.752 151.221 57.436 150.267 57.886C149.331 58.354 148.296 58.588 147.162 58.588C145.11 58.588 143.454 57.832 142.194 56.32L143.436 54.889C144.462 56.131 145.74 56.752 147.27 56.752C148.584 56.752 149.601 56.338 150.321 55.51C151.059 54.682 151.428 53.494 151.428 51.946V50.002C151.05 50.668 150.492 51.208 149.754 51.622C149.016 52.018 148.17 52.216 147.216 52.216C146.19 52.216 145.236 51.964 144.354 51.46C143.472 50.956 142.77 50.245 142.248 49.327C141.726 48.391 141.465 47.302 141.465 46.06C141.465 44.836 141.717 43.756 142.221 42.82C142.743 41.884 143.436 41.164 144.3 40.66C145.182 40.156 146.154 39.904 147.216 39.904C148.296 39.904 149.214 40.129 149.97 40.579C150.744 41.029 151.266 41.578 151.536 42.226V40.12ZM151.428 46.141V45.871C151.428 45.133 151.275 44.449 150.969 43.819C150.663 43.189 150.204 42.685 149.592 42.307C148.998 41.911 148.287 41.713 147.459 41.713C146.289 41.713 145.335 42.1 144.597 42.874C143.859 43.63 143.49 44.683 143.49 46.033C143.49 47.347 143.85 48.409 144.57 49.219C145.29 50.011 146.235 50.407 147.405 50.407C148.233 50.407 148.953 50.209 149.565 49.813C150.177 49.399 150.636 48.868 150.942 48.22C151.266 47.554 151.428 46.861 151.428 46.141ZM169.393 50.299V52.027C168.943 52.099 168.484 52.135 168.016 52.135C166.72 52.135 165.775 51.829 165.181 51.217C164.587 50.587 164.29 49.57 164.29 48.166V41.875H162.265V40.12H164.29V35.8H166.234V40.12H169.285V41.875H166.234V47.896C166.234 48.706 166.369 49.327 166.639 49.759C166.927 50.173 167.485 50.38 168.313 50.38C168.655 50.38 169.015 50.353 169.393 50.299ZM181.916 44.656V52H179.972V45.088C179.972 44.008 179.693 43.198 179.135 42.658C178.595 42.118 177.893 41.848 177.029 41.848C176.003 41.848 175.175 42.226 174.545 42.982C173.933 43.738 173.627 44.71 173.627 45.898V52H171.683V33.1H173.627V41.875C174.005 41.317 174.536 40.858 175.22 40.498C175.904 40.138 176.66 39.958 177.488 39.958C178.784 39.958 179.846 40.381 180.674 41.227C181.502 42.073 181.916 43.216 181.916 44.656ZM196.401 46.438H186.573C186.645 47.662 187.077 48.643 187.869 49.381C188.679 50.101 189.678 50.461 190.866 50.461C191.622 50.461 192.324 50.317 192.972 50.029C193.638 49.723 194.169 49.309 194.565 48.787L195.834 49.948C195.276 50.686 194.547 51.253 193.647 51.649C192.747 52.027 191.784 52.216 190.758 52.216C189.588 52.216 188.535 51.964 187.599 51.46C186.663 50.956 185.925 50.245 185.385 49.327C184.863 48.391 184.602 47.302 184.602 46.06C184.602 44.782 184.881 43.684 185.439 42.766C185.997 41.83 186.735 41.119 187.653 40.633C188.589 40.147 189.597 39.904 190.677 39.904C191.847 39.904 192.864 40.183 193.728 40.741C194.592 41.299 195.249 42.028 195.699 42.928C196.167 43.828 196.401 44.773 196.401 45.763V46.438ZM186.681 44.791H194.376C194.196 43.873 193.746 43.126 193.026 42.55C192.306 41.956 191.46 41.659 190.488 41.659C189.552 41.659 188.733 41.938 188.031 42.496C187.347 43.054 186.897 43.819 186.681 44.791ZM217.638 46.06C217.638 47.302 217.377 48.391 216.855 49.327C216.333 50.245 215.631 50.956 214.749 51.46C213.867 51.964 212.913 52.216 211.887 52.216C210.897 52.216 210.015 51.991 209.241 51.541C208.467 51.091 207.909 50.506 207.567 49.786V52H205.731V33.1H207.675V42.01C207.999 41.416 208.521 40.921 209.241 40.525C209.979 40.111 210.861 39.904 211.887 39.904C212.949 39.904 213.912 40.156 214.776 40.66C215.658 41.164 216.351 41.884 216.855 42.82C217.377 43.756 217.638 44.836 217.638 46.06ZM215.613 46.033C215.613 44.683 215.244 43.63 214.506 42.874C213.768 42.1 212.814 41.713 211.644 41.713C210.816 41.713 210.096 41.911 209.484 42.307C208.89 42.685 208.44 43.189 208.134 43.819C207.828 44.449 207.675 45.133 207.675 45.871V46.141C207.675 46.861 207.828 47.554 208.134 48.22C208.458 48.868 208.926 49.399 209.538 49.813C210.15 50.209 210.87 50.407 211.698 50.407C212.868 50.407 213.813 50.011 214.533 49.219C215.253 48.409 215.613 47.347 215.613 46.033ZM231.424 46.438H221.596C221.668 47.662 222.1 48.643 222.892 49.381C223.702 50.101 224.701 50.461 225.889 50.461C226.645 50.461 227.347 50.317 227.995 50.029C228.661 49.723 229.192 49.309 229.588 48.787L230.857 49.948C230.299 50.686 229.57 51.253 228.67 51.649C227.77 52.027 226.807 52.216 225.781 52.216C224.611 52.216 223.558 51.964 222.622 51.46C221.686 50.956 220.948 50.245 220.408 49.327C219.886 48.391 219.625 47.302 219.625 46.06C219.625 44.782 219.904 43.684 220.462 42.766C221.02 41.83 221.758 41.119 222.676 40.633C223.612 40.147 224.62 39.904 225.7 39.904C226.87 39.904 227.887 40.183 228.751 40.741C229.615 41.299 230.272 42.028 230.722 42.928C231.19 43.828 231.424 44.773 231.424 45.763V46.438ZM221.704 44.791H229.399C229.219 43.873 228.769 43.126 228.049 42.55C227.329 41.956 226.483 41.659 225.511 41.659C224.575 41.659 223.756 41.938 223.054 42.496C222.37 43.054 221.92 43.819 221.704 44.791ZM243.164 40.12H245V52H243.164V49.786C242.822 50.506 242.264 51.091 241.49 51.541C240.716 51.991 239.834 52.216 238.844 52.216C237.818 52.216 236.864 51.964 235.982 51.46C235.1 50.956 234.398 50.245 233.876 49.327C233.354 48.391 233.093 47.302 233.093 46.06C233.093 44.836 233.345 43.756 233.849 42.82C234.371 41.884 235.064 41.164 235.928 40.66C236.81 40.156 237.782 39.904 238.844 39.904C239.924 39.904 240.842 40.129 241.598 40.579C242.372 41.029 242.894 41.578 243.164 42.226V40.12ZM243.056 46.141V45.871C243.056 45.133 242.903 44.449 242.597 43.819C242.291 43.189 241.832 42.685 241.22 42.307C240.626 41.911 239.915 41.713 239.087 41.713C237.917 41.713 236.963 42.1 236.225 42.874C235.487 43.63 235.118 44.683 235.118 46.033C235.118 47.347 235.478 48.409 236.198 49.219C236.918 50.011 237.863 50.407 239.033 50.407C239.861 50.407 240.581 50.209 241.193 49.813C241.805 49.399 242.264 48.868 242.57 48.22C242.894 47.554 243.056 46.861 243.056 46.141ZM247.905 46.006C247.905 44.764 248.175 43.684 248.715 42.766C249.255 41.848 249.993 41.146 250.929 40.66C251.865 40.156 252.909 39.904 254.061 39.904C254.961 39.904 255.807 40.057 256.599 40.363C257.409 40.669 258.084 41.101 258.624 41.659L257.49 43.171C257.094 42.703 256.599 42.334 256.005 42.064C255.411 41.794 254.772 41.659 254.088 41.659C252.882 41.659 251.874 42.055 251.064 42.847C250.254 43.621 249.849 44.665 249.849 45.979C249.849 46.843 250.038 47.617 250.416 48.301C250.794 48.985 251.316 49.516 251.982 49.894C252.648 50.272 253.395 50.461 254.223 50.461C254.925 50.461 255.564 50.326 256.14 50.056C256.734 49.786 257.22 49.417 257.598 48.949L258.813 50.164C258.291 50.794 257.625 51.298 256.815 51.676C256.005 52.036 255.087 52.216 254.061 52.216C252.837 52.216 251.757 51.946 250.821 51.406C249.885 50.866 249.165 50.128 248.661 49.192C248.157 48.238 247.905 47.176 247.905 46.006ZM271.151 44.656V52H269.207V45.088C269.207 44.008 268.928 43.198 268.37 42.658C267.83 42.118 267.128 41.848 266.264 41.848C265.238 41.848 264.41 42.226 263.78 42.982C263.168 43.738 262.862 44.71 262.862 45.898V52H260.918V33.1H262.862V41.875C263.24 41.317 263.771 40.858 264.455 40.498C265.139 40.138 265.895 39.958 266.723 39.958C268.019 39.958 269.081 40.381 269.909 41.227C270.737 42.073 271.151 43.216 271.151 44.656ZM291.354 48.085L293.811 40.12H295.566V40.39L291.948 52.108H291.003L287.898 44.197L284.766 52.108H283.74L280.122 40.39V40.12H282.066L284.55 48.112L287.628 40.12H288.303L291.354 48.085ZM300.212 52H298.268V40.12H300.212V52ZM297.944 35.854C297.944 35.512 298.07 35.224 298.322 34.99C298.592 34.756 298.907 34.639 299.267 34.639C299.627 34.639 299.924 34.756 300.158 34.99C300.41 35.224 300.536 35.512 300.536 35.854C300.536 36.196 300.41 36.493 300.158 36.745C299.906 36.997 299.609 37.123 299.267 37.123C298.907 37.123 298.592 36.997 298.322 36.745C298.07 36.493 297.944 36.196 297.944 35.854ZM309.775 50.299V52.027C309.325 52.099 308.866 52.135 308.398 52.135C307.102 52.135 306.157 51.829 305.563 51.217C304.969 50.587 304.672 49.57 304.672 48.166V41.875H302.647V40.12H304.672V35.8H306.616V40.12H309.667V41.875H306.616V47.896C306.616 48.706 306.751 49.327 307.021 49.759C307.309 50.173 307.867 50.38 308.695 50.38C309.037 50.38 309.397 50.353 309.775 50.299ZM322.298 44.656V52H320.354V45.088C320.354 44.008 320.075 43.198 319.517 42.658C318.977 42.118 318.275 41.848 317.411 41.848C316.385 41.848 315.557 42.226 314.927 42.982C314.315 43.738 314.009 44.71 314.009 45.898V52H312.065V33.1H314.009V41.875C314.387 41.317 314.918 40.858 315.602 40.498C316.286 40.138 317.042 39.958 317.87 39.958C319.166 39.958 320.228 40.381 321.056 41.227C321.884 42.073 322.298 43.216 322.298 44.656ZM338.127 50.299V52.027C337.677 52.099 337.218 52.135 336.75 52.135C335.454 52.135 334.509 51.829 333.915 51.217C333.321 50.587 333.024 49.57 333.024 48.166V41.875H330.999V40.12H333.024V35.8H334.968V40.12H338.019V41.875H334.968V47.896C334.968 48.706 335.103 49.327 335.373 49.759C335.661 50.173 336.219 50.38 337.047 50.38C337.389 50.38 337.749 50.353 338.127 50.299ZM350.65 44.656V52H348.706V45.088C348.706 44.008 348.427 43.198 347.869 42.658C347.329 42.118 346.627 41.848 345.763 41.848C344.737 41.848 343.909 42.226 343.279 42.982C342.667 43.738 342.361 44.71 342.361 45.898V52H340.417V33.1H342.361V41.875C342.739 41.317 343.27 40.858 343.954 40.498C344.638 40.138 345.394 39.958 346.222 39.958C347.518 39.958 348.58 40.381 349.408 41.227C350.236 42.073 350.65 43.216 350.65 44.656ZM365.136 46.438H355.308C355.38 47.662 355.812 48.643 356.604 49.381C357.414 50.101 358.413 50.461 359.601 50.461C360.357 50.461 361.059 50.317 361.707 50.029C362.373 49.723 362.904 49.309 363.3 48.787L364.569 49.948C364.011 50.686 363.282 51.253 362.382 51.649C361.482 52.027 360.519 52.216 359.493 52.216C358.323 52.216 357.27 51.964 356.334 51.46C355.398 50.956 354.66 50.245 354.12 49.327C353.598 48.391 353.337 47.302 353.337 46.06C353.337 44.782 353.616 43.684 354.174 42.766C354.732 41.83 355.47 41.119 356.388 40.633C357.324 40.147 358.332 39.904 359.412 39.904C360.582 39.904 361.599 40.183 362.463 40.741C363.327 41.299 363.984 42.028 364.434 42.928C364.902 43.828 365.136 44.773 365.136 45.763V46.438ZM355.416 44.791H363.111C362.931 43.873 362.481 43.126 361.761 42.55C361.041 41.956 360.195 41.659 359.223 41.659C358.287 41.659 357.468 41.938 356.766 42.496C356.082 43.054 355.632 43.819 355.416 44.791ZM385.346 46.438H375.518C375.59 47.662 376.022 48.643 376.814 49.381C377.624 50.101 378.623 50.461 379.811 50.461C380.567 50.461 381.269 50.317 381.917 50.029C382.583 49.723 383.114 49.309 383.51 48.787L384.779 49.948C384.221 50.686 383.492 51.253 382.592 51.649C381.692 52.027 380.729 52.216 379.703 52.216C378.533 52.216 377.48 51.964 376.544 51.46C375.608 50.956 374.87 50.245 374.33 49.327C373.808 48.391 373.547 47.302 373.547 46.06C373.547 44.782 373.826 43.684 374.384 42.766C374.942 41.83 375.68 41.119 376.598 40.633C377.534 40.147 378.542 39.904 379.622 39.904C380.792 39.904 381.809 40.183 382.673 40.741C383.537 41.299 384.194 42.028 384.644 42.928C385.112 43.828 385.346 44.773 385.346 45.763V46.438ZM375.626 44.791H383.321C383.141 43.873 382.691 43.126 381.971 42.55C381.251 41.956 380.405 41.659 379.433 41.659C378.497 41.659 377.678 41.938 376.976 42.496C376.292 43.054 375.842 43.819 375.626 44.791ZM391.983 48.463L395.439 40.12H397.275V40.39L392.199 52.162H391.605L386.259 40.39V40.12H388.284L391.983 48.463ZM410.04 46.438H400.212C400.284 47.662 400.716 48.643 401.508 49.381C402.318 50.101 403.317 50.461 404.505 50.461C405.261 50.461 405.963 50.317 406.611 50.029C407.277 49.723 407.808 49.309 408.204 48.787L409.473 49.948C408.915 50.686 408.186 51.253 407.286 51.649C406.386 52.027 405.423 52.216 404.397 52.216C403.227 52.216 402.174 51.964 401.238 51.46C400.302 50.956 399.564 50.245 399.024 49.327C398.502 48.391 398.241 47.302 398.241 46.06C398.241 44.782 398.52 43.684 399.078 42.766C399.636 41.83 400.374 41.119 401.292 40.633C402.228 40.147 403.236 39.904 404.316 39.904C405.486 39.904 406.503 40.183 407.367 40.741C408.231 41.299 408.888 42.028 409.338 42.928C409.806 43.828 410.04 44.773 410.04 45.763V46.438ZM400.32 44.791H408.015C407.835 43.873 407.385 43.126 406.665 42.55C405.945 41.956 405.099 41.659 404.127 41.659C403.191 41.659 402.372 41.938 401.67 42.496C400.986 43.054 400.536 43.819 400.32 44.791ZM422.832 44.656V52H420.888V45.088C420.888 44.008 420.609 43.198 420.051 42.658C419.511 42.118 418.809 41.848 417.945 41.848C416.919 41.848 416.091 42.226 415.461 42.982C414.849 43.738 414.543 44.71 414.543 45.898V52H412.599V40.12H414.435V42.064C414.795 41.452 415.326 40.948 416.028 40.552C416.748 40.156 417.54 39.958 418.404 39.958C419.7 39.958 420.762 40.381 421.59 41.227C422.418 42.073 422.832 43.216 422.832 44.656ZM428.623 52H426.679V40.12H428.623V52ZM426.355 35.854C426.355 35.512 426.481 35.224 426.733 34.99C427.003 34.756 427.318 34.639 427.678 34.639C428.038 34.639 428.335 34.756 428.569 34.99C428.821 35.224 428.947 35.512 428.947 35.854C428.947 36.196 428.821 36.493 428.569 36.745C428.317 36.997 428.02 37.123 427.678 37.123C427.318 37.123 427.003 36.997 426.733 36.745C426.481 36.493 426.355 36.196 426.355 35.854ZM442.911 44.656V52H440.967V45.088C440.967 44.008 440.688 43.198 440.13 42.658C439.59 42.118 438.888 41.848 438.024 41.848C436.998 41.848 436.17 42.226 435.54 42.982C434.928 43.738 434.622 44.71 434.622 45.898V52H432.678V40.12H434.514V42.064C434.874 41.452 435.405 40.948 436.107 40.552C436.827 40.156 437.619 39.958 438.483 39.958C439.779 39.958 440.841 40.381 441.669 41.227C442.497 42.073 442.911 43.216 442.911 44.656ZM455.668 40.12H457.504V52.459C457.504 53.791 457.225 54.916 456.667 55.834C456.109 56.752 455.353 57.436 454.399 57.886C453.463 58.354 452.428 58.588 451.294 58.588C449.242 58.588 447.586 57.832 446.326 56.32L447.568 54.889C448.594 56.131 449.872 56.752 451.402 56.752C452.716 56.752 453.733 56.338 454.453 55.51C455.191 54.682 455.56 53.494 455.56 51.946V50.002C455.182 50.668 454.624 51.208 453.886 51.622C453.148 52.018 452.302 52.216 451.348 52.216C450.322 52.216 449.368 51.964 448.486 51.46C447.604 50.956 446.902 50.245 446.38 49.327C445.858 48.391 445.597 47.302 445.597 46.06C445.597 44.836 445.849 43.756 446.353 42.82C446.875 41.884 447.568 41.164 448.432 40.66C449.314 40.156 450.286 39.904 451.348 39.904C452.428 39.904 453.346 40.129 454.102 40.579C454.876 41.029 455.398 41.578 455.668 42.226V40.12ZM455.56 46.141V45.871C455.56 45.133 455.407 44.449 455.101 43.819C454.795 43.189 454.336 42.685 453.724 42.307C453.13 41.911 452.419 41.713 451.591 41.713C450.421 41.713 449.467 42.1 448.729 42.874C447.991 43.63 447.622 44.683 447.622 46.033C447.622 47.347 447.982 48.409 448.702 49.219C449.422 50.011 450.367 50.407 451.537 50.407C452.365 50.407 453.085 50.209 453.697 49.813C454.309 49.399 454.768 48.868 455.074 48.22C455.398 47.554 455.56 46.861 455.56 46.141ZM479.952 46.06C479.952 47.302 479.691 48.391 479.169 49.327C478.647 50.245 477.945 50.956 477.063 51.46C476.181 51.964 475.227 52.216 474.201 52.216C473.211 52.216 472.329 51.991 471.555 51.541C470.781 51.091 470.223 50.506 469.881 49.786V52H468.045V33.1H469.989V42.01C470.313 41.416 470.835 40.921 471.555 40.525C472.293 40.111 473.175 39.904 474.201 39.904C475.263 39.904 476.226 40.156 477.09 40.66C477.972 41.164 478.665 41.884 479.169 42.82C479.691 43.756 479.952 44.836 479.952 46.06ZM477.927 46.033C477.927 44.683 477.558 43.63 476.82 42.874C476.082 42.1 475.128 41.713 473.958 41.713C473.13 41.713 472.41 41.911 471.798 42.307C471.204 42.685 470.754 43.189 470.448 43.819C470.142 44.449 469.989 45.133 469.989 45.871V46.141C469.989 46.861 470.142 47.554 470.448 48.22C470.772 48.868 471.24 49.399 471.852 49.813C472.464 50.209 473.184 50.407 474.012 50.407C475.182 50.407 476.127 50.011 476.847 49.219C477.567 48.409 477.927 47.347 477.927 46.033ZM488.689 40.039V41.983C488.203 41.893 487.762 41.848 487.366 41.848C486.322 41.848 485.629 42.172 485.287 42.82C484.945 43.45 484.774 44.404 484.774 45.682V52H482.83V40.12H484.666V41.713C485.26 40.543 486.25 39.958 487.636 39.958C488.05 39.958 488.401 39.985 488.689 40.039ZM501.773 46.438H491.945C492.017 47.662 492.449 48.643 493.241 49.381C494.051 50.101 495.05 50.461 496.238 50.461C496.994 50.461 497.696 50.317 498.344 50.029C499.01 49.723 499.541 49.309 499.937 48.787L501.206 49.948C500.648 50.686 499.919 51.253 499.019 51.649C498.119 52.027 497.156 52.216 496.13 52.216C494.96 52.216 493.907 51.964 492.971 51.46C492.035 50.956 491.297 50.245 490.757 49.327C490.235 48.391 489.974 47.302 489.974 46.06C489.974 44.782 490.253 43.684 490.811 42.766C491.369 41.83 492.107 41.119 493.025 40.633C493.961 40.147 494.969 39.904 496.049 39.904C497.219 39.904 498.236 40.183 499.1 40.741C499.964 41.299 500.621 42.028 501.071 42.928C501.539 43.828 501.773 44.773 501.773 45.763V46.438ZM492.053 44.791H499.748C499.568 43.873 499.118 43.126 498.398 42.55C497.678 41.956 496.832 41.659 495.86 41.659C494.924 41.659 494.105 41.938 493.403 42.496C492.719 43.054 492.269 43.819 492.053 44.791ZM515.241 46.438H505.413C505.485 47.662 505.917 48.643 506.709 49.381C507.519 50.101 508.518 50.461 509.706 50.461C510.462 50.461 511.164 50.317 511.812 50.029C512.478 49.723 513.009 49.309 513.405 48.787L514.674 49.948C514.116 50.686 513.387 51.253 512.487 51.649C511.587 52.027 510.624 52.216 509.598 52.216C508.428 52.216 507.375 51.964 506.439 51.46C505.503 50.956 504.765 50.245 504.225 49.327C503.703 48.391 503.442 47.302 503.442 46.06C503.442 44.782 503.721 43.684 504.279 42.766C504.837 41.83 505.575 41.119 506.493 40.633C507.429 40.147 508.437 39.904 509.517 39.904C510.687 39.904 511.704 40.183 512.568 40.741C513.432 41.299 514.089 42.028 514.539 42.928C515.007 43.828 515.241 44.773 515.241 45.763V46.438ZM505.521 44.791H513.216C513.036 43.873 512.586 43.126 511.866 42.55C511.146 41.956 510.3 41.659 509.328 41.659C508.392 41.659 507.573 41.938 506.871 42.496C506.187 43.054 505.737 43.819 505.521 44.791ZM526.278 52H516.72V51.163L523.497 41.875H516.882V40.12H526.386V40.957L519.582 50.245H526.278V52ZM539.855 46.438H530.027C530.099 47.662 530.531 48.643 531.323 49.381C532.133 50.101 533.132 50.461 534.32 50.461C535.076 50.461 535.778 50.317 536.426 50.029C537.092 49.723 537.623 49.309 538.019 48.787L539.288 49.948C538.73 50.686 538.001 51.253 537.101 51.649C536.201 52.027 535.238 52.216 534.212 52.216C533.042 52.216 531.989 51.964 531.053 51.46C530.117 50.956 529.379 50.245 528.839 49.327C528.317 48.391 528.056 47.302 528.056 46.06C528.056 44.782 528.335 43.684 528.893 42.766C529.451 41.83 530.189 41.119 531.107 40.633C532.043 40.147 533.051 39.904 534.131 39.904C535.301 39.904 536.318 40.183 537.182 40.741C538.046 41.299 538.703 42.028 539.153 42.928C539.621 43.828 539.855 44.773 539.855 45.763V46.438ZM530.135 44.791H537.83C537.65 43.873 537.2 43.126 536.48 42.55C535.76 41.956 534.914 41.659 533.942 41.659C533.006 41.659 532.187 41.938 531.485 42.496C530.801 43.054 530.351 43.819 530.135 44.791Z" fill="#F4F4F4"></path> </svg> 