<?xml version="1.0" encoding="UTF-8"?> <svg xmlns="http://www.w3.org/2000/svg" width="525" height="84" viewBox="0 0 525 84" fill="none"> <rect x="0.5" y="0.5" width="524" height="83" rx="41.5" stroke="#1DD0CC"></rect> <path d="M49.7484 44.33C49.7484 45.428 49.4604 46.409 48.8844 47.273C48.3264 48.137 47.5344 48.812 46.5084 49.298C45.5004 49.766 44.3394 50 43.0254 50H38.0574V31.1H43.0254C44.5914 31.1 45.8244 31.487 46.7244 32.261C47.6244 33.035 48.0744 34.088 48.0744 35.42C48.0744 36.482 47.8134 37.355 47.2914 38.039C46.7694 38.705 46.1214 39.191 45.3474 39.497C46.6974 39.623 47.7684 40.136 48.5604 41.036C49.3524 41.936 49.7484 43.034 49.7484 44.33ZM42.1614 33.098H40.2174V38.849H42.1614C43.3314 38.849 44.2494 38.597 44.9154 38.093C45.5814 37.589 45.9144 36.851 45.9144 35.879C45.9144 34.025 44.6634 33.098 42.1614 33.098ZM42.5394 48.002C44.1774 48.002 45.4194 47.669 46.2654 47.003C47.1114 46.337 47.5344 45.428 47.5344 44.276C47.5344 43.106 47.1204 42.215 46.2924 41.603C45.4644 40.991 44.3664 40.685 42.9984 40.685H40.2174V48.002H42.5394ZM60.737 38.12H62.681V50H60.845V48.11C60.503 48.722 59.999 49.217 59.333 49.595C58.667 49.973 57.875 50.162 56.957 50.162C55.625 50.162 54.563 49.721 53.771 48.839C52.997 47.957 52.61 46.652 52.61 44.924V38.12H54.554V44.492C54.554 45.806 54.77 46.778 55.202 47.408C55.652 48.02 56.336 48.326 57.254 48.326C58.352 48.326 59.207 47.948 59.819 47.192C60.431 46.418 60.737 45.428 60.737 44.222V38.12ZM70.6905 47.246L74.1195 38.12H76.0095V38.39L69.2055 56.48H67.3155V56.21L69.7185 49.838L64.8045 38.39V38.12H66.8295L70.6905 47.246ZM94.8859 36.473V50H92.9419V37.013C92.9419 35.393 92.7349 34.25 92.3209 33.584C91.9249 32.918 91.1869 32.585 90.1069 32.585C89.0269 32.585 88.2799 32.918 87.8659 33.584C87.4519 34.25 87.2449 35.393 87.2449 37.013V38.12H90.1879V39.875H87.2449V50H85.3009V39.875H83.2759V38.12H85.3009V36.473C85.3009 34.655 85.6789 33.26 86.4349 32.288C87.2089 31.316 88.4329 30.83 90.1069 30.83C91.7809 30.83 92.9959 31.316 93.7519 32.288C94.5079 33.26 94.8859 34.655 94.8859 36.473ZM97.7622 44.006C97.7622 42.854 98.0232 41.819 98.5452 40.901C99.0852 39.965 99.8142 39.236 100.732 38.714C101.65 38.174 102.685 37.904 103.837 37.904C104.989 37.904 106.024 38.174 106.942 38.714C107.86 39.236 108.58 39.965 109.102 40.901C109.624 41.819 109.885 42.854 109.885 44.006C109.885 45.176 109.615 46.238 109.075 47.192C108.553 48.128 107.833 48.866 106.915 49.406C105.997 49.946 104.971 50.216 103.837 50.216C102.703 50.216 101.668 49.946 100.732 49.406C99.8142 48.848 99.0852 48.101 98.5452 47.165C98.0232 46.211 97.7622 45.158 97.7622 44.006ZM107.941 44.006C107.941 42.71 107.563 41.666 106.807 40.874C106.051 40.064 105.061 39.659 103.837 39.659C102.613 39.659 101.614 40.064 100.84 40.874C100.084 41.666 99.7062 42.71 99.7062 44.006C99.7062 45.32 100.093 46.391 100.867 47.219C101.641 48.047 102.631 48.461 103.837 48.461C105.043 48.461 106.024 48.047 106.78 47.219C107.554 46.391 107.941 45.32 107.941 44.006ZM122.398 46.085L124.855 38.12H126.61V38.39L122.992 50.108H122.047L118.942 42.197L115.81 50.108H114.784L111.166 38.39V38.12H113.11L115.594 46.112L118.672 38.12H119.347L122.398 46.085ZM139.686 44.438H129.858C129.93 45.662 130.362 46.643 131.154 47.381C131.964 48.101 132.963 48.461 134.151 48.461C134.907 48.461 135.609 48.317 136.257 48.029C136.923 47.723 137.454 47.309 137.85 46.787L139.119 47.948C138.561 48.686 137.832 49.253 136.932 49.649C136.032 50.027 135.069 50.216 134.043 50.216C132.873 50.216 131.82 49.964 130.884 49.46C129.948 48.956 129.21 48.245 128.67 47.327C128.148 46.391 127.887 45.302 127.887 44.06C127.887 42.782 128.166 41.684 128.724 40.766C129.282 39.83 130.02 39.119 130.938 38.633C131.874 38.147 132.882 37.904 133.962 37.904C135.132 37.904 136.149 38.183 137.013 38.741C137.877 39.299 138.534 40.028 138.984 40.928C139.452 41.828 139.686 42.773 139.686 43.763V44.438ZM129.966 42.791H137.661C137.481 41.873 137.031 41.126 136.311 40.55C135.591 39.956 134.745 39.659 133.773 39.659C132.837 39.659 132.018 39.938 131.316 40.496C130.632 41.054 130.182 41.819 129.966 42.791ZM148.105 38.039V39.983C147.619 39.893 147.178 39.848 146.782 39.848C145.738 39.848 145.045 40.172 144.703 40.82C144.361 41.45 144.19 42.404 144.19 43.682V50H142.246V38.12H144.082V39.713C144.676 38.543 145.666 37.958 147.052 37.958C147.466 37.958 147.817 37.985 148.105 38.039ZM149.336 48.299L150.416 46.895C151.388 47.975 152.612 48.515 154.088 48.515C154.898 48.515 155.555 48.353 156.059 48.029C156.581 47.705 156.842 47.255 156.842 46.679C156.842 46.121 156.608 45.707 156.14 45.437C155.672 45.167 154.934 44.888 153.926 44.6C153.08 44.366 152.396 44.141 151.874 43.925C151.37 43.709 150.938 43.385 150.578 42.953C150.218 42.521 150.038 41.954 150.038 41.252C150.038 40.154 150.461 39.317 151.307 38.741C152.153 38.147 153.224 37.85 154.52 37.85C155.42 37.85 156.176 37.994 156.788 38.282C157.418 38.552 157.976 38.921 158.462 39.389L157.328 40.847C156.968 40.433 156.563 40.127 156.113 39.929C155.681 39.713 155.141 39.605 154.493 39.605C153.719 39.605 153.107 39.749 152.657 40.037C152.207 40.307 151.982 40.667 151.982 41.117C151.982 41.639 152.198 42.017 152.63 42.251C153.08 42.485 153.782 42.719 154.736 42.953C155.582 43.169 156.275 43.385 156.815 43.601C157.355 43.817 157.814 44.159 158.192 44.627C158.588 45.077 158.786 45.698 158.786 46.49C158.786 47.696 158.336 48.632 157.436 49.298C156.554 49.946 155.447 50.27 154.115 50.27C152.243 50.27 150.65 49.613 149.336 48.299ZM177.827 38.12H179.663V50H177.827V47.786C177.485 48.506 176.927 49.091 176.153 49.541C175.379 49.991 174.497 50.216 173.507 50.216C172.481 50.216 171.527 49.964 170.645 49.46C169.763 48.956 169.061 48.245 168.539 47.327C168.017 46.391 167.756 45.302 167.756 44.06C167.756 42.836 168.008 41.756 168.512 40.82C169.034 39.884 169.727 39.164 170.591 38.66C171.473 38.156 172.445 37.904 173.507 37.904C174.587 37.904 175.505 38.129 176.261 38.579C177.035 39.029 177.557 39.578 177.827 40.226V38.12ZM177.719 44.141V43.871C177.719 43.133 177.566 42.449 177.26 41.819C176.954 41.189 176.495 40.685 175.883 40.307C175.289 39.911 174.578 39.713 173.75 39.713C172.58 39.713 171.626 40.1 170.888 40.874C170.15 41.63 169.781 42.683 169.781 44.033C169.781 45.347 170.141 46.409 170.861 47.219C171.581 48.011 172.526 48.407 173.696 48.407C174.524 48.407 175.244 48.209 175.856 47.813C176.468 47.399 176.927 46.868 177.233 46.22C177.557 45.554 177.719 44.861 177.719 44.141ZM193.692 42.656V50H191.748V43.088C191.748 42.008 191.469 41.198 190.911 40.658C190.371 40.118 189.669 39.848 188.805 39.848C187.779 39.848 186.951 40.226 186.321 40.982C185.709 41.738 185.403 42.71 185.403 43.898V50H183.459V38.12H185.295V40.064C185.655 39.452 186.186 38.948 186.888 38.552C187.608 38.156 188.4 37.958 189.264 37.958C190.56 37.958 191.622 38.381 192.45 39.227C193.278 40.073 193.692 41.216 193.692 42.656ZM206.341 31.1H208.285V50H206.449V47.786C206.107 48.506 205.549 49.091 204.775 49.541C204.001 49.991 203.119 50.216 202.129 50.216C201.103 50.216 200.149 49.964 199.267 49.46C198.385 48.956 197.683 48.245 197.161 47.327C196.639 46.391 196.378 45.302 196.378 44.06C196.378 42.836 196.63 41.756 197.134 40.82C197.656 39.884 198.349 39.164 199.213 38.66C200.095 38.156 201.067 37.904 202.129 37.904C203.155 37.904 204.028 38.111 204.748 38.525C205.486 38.921 206.017 39.416 206.341 40.01V31.1ZM206.341 44.141V43.871C206.341 43.133 206.188 42.449 205.882 41.819C205.576 41.189 205.117 40.685 204.505 40.307C203.911 39.911 203.2 39.713 202.372 39.713C201.202 39.713 200.248 40.1 199.51 40.874C198.772 41.63 198.403 42.683 198.403 44.033C198.403 45.347 198.763 46.409 199.483 47.219C200.203 48.011 201.148 48.407 202.318 48.407C203.146 48.407 203.866 48.209 204.478 47.813C205.09 47.399 205.549 46.868 205.855 46.22C206.179 45.554 206.341 44.861 206.341 44.141ZM222.875 46.463L226.331 38.12H228.167V38.39L223.091 50.162H222.497L217.151 38.39V38.12H219.176L222.875 46.463ZM232.502 50H230.558V38.12H232.502V50ZM230.234 33.854C230.234 33.512 230.36 33.224 230.612 32.99C230.882 32.756 231.197 32.639 231.557 32.639C231.917 32.639 232.214 32.756 232.448 32.99C232.7 33.224 232.826 33.512 232.826 33.854C232.826 34.196 232.7 34.493 232.448 34.745C232.196 34.997 231.899 35.123 231.557 35.123C231.197 35.123 230.882 34.997 230.612 34.745C230.36 34.493 230.234 34.196 230.234 33.854ZM235.612 48.299L236.692 46.895C237.664 47.975 238.888 48.515 240.364 48.515C241.174 48.515 241.831 48.353 242.335 48.029C242.857 47.705 243.118 47.255 243.118 46.679C243.118 46.121 242.884 45.707 242.416 45.437C241.948 45.167 241.21 44.888 240.202 44.6C239.356 44.366 238.672 44.141 238.15 43.925C237.646 43.709 237.214 43.385 236.854 42.953C236.494 42.521 236.314 41.954 236.314 41.252C236.314 40.154 236.737 39.317 237.583 38.741C238.429 38.147 239.5 37.85 240.796 37.85C241.696 37.85 242.452 37.994 243.064 38.282C243.694 38.552 244.252 38.921 244.738 39.389L243.604 40.847C243.244 40.433 242.839 40.127 242.389 39.929C241.957 39.713 241.417 39.605 240.769 39.605C239.995 39.605 239.383 39.749 238.933 40.037C238.483 40.307 238.258 40.667 238.258 41.117C238.258 41.639 238.474 42.017 238.906 42.251C239.356 42.485 240.058 42.719 241.012 42.953C241.858 43.169 242.551 43.385 243.091 43.601C243.631 43.817 244.09 44.159 244.468 44.627C244.864 45.077 245.062 45.698 245.062 46.49C245.062 47.696 244.612 48.632 243.712 49.298C242.83 49.946 241.723 50.27 240.391 50.27C238.519 50.27 236.926 49.613 235.612 48.299ZM250.392 50H248.448V38.12H250.392V50ZM248.124 33.854C248.124 33.512 248.25 33.224 248.502 32.99C248.772 32.756 249.087 32.639 249.447 32.639C249.807 32.639 250.104 32.756 250.338 32.99C250.59 33.224 250.716 33.512 250.716 33.854C250.716 34.196 250.59 34.493 250.338 34.745C250.086 34.997 249.789 35.123 249.447 35.123C249.087 35.123 248.772 34.997 248.502 34.745C248.25 34.493 248.124 34.196 248.124 33.854ZM259.955 48.299V50.027C259.505 50.099 259.046 50.135 258.578 50.135C257.282 50.135 256.337 49.829 255.743 49.217C255.149 48.587 254.852 47.57 254.852 46.166V39.875H252.827V38.12H254.852V33.8H256.796V38.12H259.847V39.875H256.796V45.896C256.796 46.706 256.931 47.327 257.201 47.759C257.489 48.173 258.047 48.38 258.875 48.38C259.217 48.38 259.577 48.353 259.955 48.299ZM277.899 40.442H287.403C287.403 42.548 287.025 44.339 286.269 45.815C285.513 47.273 284.442 48.38 283.056 49.136C281.688 49.892 280.086 50.27 278.25 50.27C276.252 50.27 274.488 49.847 272.958 49.001C271.446 48.155 270.276 47.003 269.448 45.545C268.62 44.069 268.206 42.422 268.206 40.604C268.206 38.858 268.593 37.247 269.367 35.771C270.141 34.277 271.284 33.08 272.796 32.18C274.308 31.28 276.126 30.83 278.25 30.83C279.69 30.83 281.058 31.055 282.354 31.505C283.668 31.937 284.829 32.648 285.837 33.638L284.433 35.312C283.605 34.412 282.633 33.764 281.517 33.368C280.419 32.972 279.285 32.774 278.115 32.774C276.549 32.774 275.181 33.143 274.011 33.881C272.841 34.619 271.95 35.591 271.338 36.797C270.726 37.985 270.42 39.263 270.42 40.631C270.42 42.071 270.753 43.376 271.419 44.546C272.103 45.716 273.048 46.643 274.254 47.327C275.478 47.993 276.855 48.326 278.385 48.326C280.221 48.326 281.76 47.831 283.002 46.841C284.262 45.833 285.054 44.366 285.378 42.44H277.899V40.442ZM296.2 38.039V39.983C295.714 39.893 295.273 39.848 294.877 39.848C293.833 39.848 293.14 40.172 292.798 40.82C292.456 41.45 292.285 42.404 292.285 43.682V50H290.341V38.12H292.177V39.713C292.771 38.543 293.761 37.958 295.147 37.958C295.561 37.958 295.912 37.985 296.2 38.039ZM307.556 38.12H309.392V50H307.556V47.786C307.214 48.506 306.656 49.091 305.882 49.541C305.108 49.991 304.226 50.216 303.236 50.216C302.21 50.216 301.256 49.964 300.374 49.46C299.492 48.956 298.79 48.245 298.268 47.327C297.746 46.391 297.485 45.302 297.485 44.06C297.485 42.836 297.737 41.756 298.241 40.82C298.763 39.884 299.456 39.164 300.32 38.66C301.202 38.156 302.174 37.904 303.236 37.904C304.316 37.904 305.234 38.129 305.99 38.579C306.764 39.029 307.286 39.578 307.556 40.226V38.12ZM307.448 44.141V43.871C307.448 43.133 307.295 42.449 306.989 41.819C306.683 41.189 306.224 40.685 305.612 40.307C305.018 39.911 304.307 39.713 303.479 39.713C302.309 39.713 301.355 40.1 300.617 40.874C299.879 41.63 299.51 42.683 299.51 44.033C299.51 45.347 299.87 46.409 300.59 47.219C301.31 48.011 302.255 48.407 303.425 48.407C304.253 48.407 304.973 48.209 305.585 47.813C306.197 47.399 306.656 46.868 306.962 46.22C307.286 45.554 307.448 44.861 307.448 44.141ZM323.421 42.656V50H321.477V43.088C321.477 42.008 321.198 41.198 320.64 40.658C320.1 40.118 319.398 39.848 318.534 39.848C317.508 39.848 316.68 40.226 316.05 40.982C315.438 41.738 315.132 42.71 315.132 43.898V50H313.188V38.12H315.024V40.064C315.384 39.452 315.915 38.948 316.617 38.552C317.337 38.156 318.129 37.958 318.993 37.958C320.289 37.958 321.351 38.381 322.179 39.227C323.007 40.073 323.421 41.216 323.421 42.656ZM336.07 31.1H338.014V50H336.178V47.786C335.836 48.506 335.278 49.091 334.504 49.541C333.73 49.991 332.848 50.216 331.858 50.216C330.832 50.216 329.878 49.964 328.996 49.46C328.114 48.956 327.412 48.245 326.89 47.327C326.368 46.391 326.107 45.302 326.107 44.06C326.107 42.836 326.359 41.756 326.863 40.82C327.385 39.884 328.078 39.164 328.942 38.66C329.824 38.156 330.796 37.904 331.858 37.904C332.884 37.904 333.757 38.111 334.477 38.525C335.215 38.921 335.746 39.416 336.07 40.01V31.1ZM336.07 44.141V43.871C336.07 43.133 335.917 42.449 335.611 41.819C335.305 41.189 334.846 40.685 334.234 40.307C333.64 39.911 332.929 39.713 332.101 39.713C330.931 39.713 329.977 40.1 329.239 40.874C328.501 41.63 328.132 42.683 328.132 44.033C328.132 45.347 328.492 46.409 329.212 47.219C329.932 48.011 330.877 48.407 332.047 48.407C332.875 48.407 333.595 48.209 334.207 47.813C334.819 47.399 335.278 46.868 335.584 46.22C335.908 45.554 336.07 44.861 336.07 44.141ZM358.686 42.467V50H356.742V43.169C356.742 42.053 356.481 41.225 355.959 40.685C355.437 40.127 354.798 39.848 354.042 39.848C353.142 39.848 352.44 40.208 351.936 40.928C351.45 41.648 351.207 42.575 351.207 43.709V50H349.263V42.899C349.263 41.873 349.038 41.108 348.588 40.604C348.156 40.1 347.58 39.848 346.86 39.848C345.924 39.848 345.168 40.244 344.592 41.036C344.016 41.81 343.728 42.764 343.728 43.898V50H341.784V38.12H343.62V40.037C343.962 39.425 344.439 38.93 345.051 38.552C345.681 38.156 346.365 37.958 347.103 37.958C347.805 37.958 348.453 38.147 349.047 38.525C349.659 38.903 350.136 39.416 350.478 40.064C350.838 39.434 351.342 38.93 351.99 38.552C352.656 38.156 353.394 37.958 354.204 37.958C354.978 37.958 355.707 38.147 356.391 38.525C357.075 38.885 357.624 39.407 358.038 40.091C358.47 40.775 358.686 41.567 358.686 42.467ZM371.419 38.12H373.255V50H371.419V47.786C371.077 48.506 370.519 49.091 369.745 49.541C368.971 49.991 368.089 50.216 367.099 50.216C366.073 50.216 365.119 49.964 364.237 49.46C363.355 48.956 362.653 48.245 362.131 47.327C361.609 46.391 361.348 45.302 361.348 44.06C361.348 42.836 361.6 41.756 362.104 40.82C362.626 39.884 363.319 39.164 364.183 38.66C365.065 38.156 366.037 37.904 367.099 37.904C368.179 37.904 369.097 38.129 369.853 38.579C370.627 39.029 371.149 39.578 371.419 40.226V38.12ZM371.311 44.141V43.871C371.311 43.133 371.158 42.449 370.852 41.819C370.546 41.189 370.087 40.685 369.475 40.307C368.881 39.911 368.17 39.713 367.342 39.713C366.172 39.713 365.218 40.1 364.48 40.874C363.742 41.63 363.373 42.683 363.373 44.033C363.373 45.347 363.733 46.409 364.453 47.219C365.173 48.011 366.118 48.407 367.288 48.407C368.116 48.407 368.836 48.209 369.448 47.813C370.06 47.399 370.519 46.868 370.825 46.22C371.149 45.554 371.311 44.861 371.311 44.141ZM379.454 43.79H377.294V31.1H379.454V43.79ZM376.862 48.839C376.862 48.407 376.988 48.056 377.24 47.786C377.51 47.498 377.879 47.354 378.347 47.354C378.815 47.354 379.184 47.498 379.454 47.786C379.724 48.056 379.859 48.407 379.859 48.839C379.859 49.235 379.724 49.577 379.454 49.865C379.184 50.135 378.815 50.27 378.347 50.27C377.897 50.27 377.537 50.135 377.267 49.865C376.997 49.595 376.862 49.253 376.862 48.839Z" fill="#F4F4F4"></path> </svg> 