<?xml version="1.0" encoding="UTF-8"?> <svg xmlns="http://www.w3.org/2000/svg" width="74" height="31" viewBox="0 0 74 31" fill="none"> <rect x="0.5" y="0.5" width="73" height="30" rx="15" stroke="#1DD0CC"></rect> <path d="M16.728 19.866L17.772 18.462C18.048 18.75 18.378 18.984 18.762 19.164C19.146 19.332 19.548 19.416 19.968 19.416C20.352 19.416 20.658 19.35 20.886 19.218C21.114 19.074 21.228 18.888 21.228 18.66C21.228 18.432 21.114 18.258 20.886 18.138C20.658 18.006 20.286 17.85 19.77 17.67C19.218 17.49 18.762 17.31 18.402 17.13C18.054 16.95 17.748 16.698 17.484 16.374C17.22 16.038 17.088 15.606 17.088 15.078C17.088 14.298 17.376 13.698 17.952 13.278C18.54 12.846 19.314 12.63 20.274 12.63C21.438 12.63 22.38 12.978 23.1 13.674L22.056 15.114C21.792 14.862 21.51 14.676 21.21 14.556C20.922 14.424 20.58 14.358 20.184 14.358C19.824 14.358 19.554 14.412 19.374 14.52C19.206 14.628 19.122 14.778 19.122 14.97C19.122 15.21 19.236 15.396 19.464 15.528C19.704 15.66 20.082 15.798 20.598 15.942C21.15 16.11 21.6 16.278 21.948 16.446C22.308 16.614 22.614 16.866 22.866 17.202C23.13 17.538 23.262 17.976 23.262 18.516C23.262 19.38 22.944 20.04 22.308 20.496C21.684 20.94 20.892 21.162 19.932 21.162C19.212 21.162 18.582 21.054 18.042 20.838C17.502 20.61 17.064 20.286 16.728 19.866ZM24.3707 16.878C24.3707 16.038 24.5627 15.3 24.9467 14.664C25.3307 14.016 25.8587 13.518 26.5307 13.17C27.2147 12.81 27.9827 12.63 28.8347 12.63C29.6867 12.63 30.4487 12.81 31.1207 13.17C31.7927 13.53 32.3147 14.034 32.6867 14.682C33.0707 15.318 33.2627 16.05 33.2627 16.878C33.2627 17.718 33.0707 18.462 32.6867 19.11C32.3027 19.746 31.7747 20.244 31.1027 20.604C30.4307 20.952 29.6747 21.126 28.8347 21.126C27.9707 21.126 27.1967 20.946 26.5127 20.586C25.8407 20.226 25.3127 19.728 24.9287 19.092C24.5567 18.444 24.3707 17.706 24.3707 16.878ZM30.9227 16.878C30.9227 16.182 30.7367 15.618 30.3647 15.186C29.9927 14.754 29.4827 14.538 28.8347 14.538C28.1747 14.538 27.6527 14.76 27.2687 15.204C26.8967 15.636 26.7107 16.194 26.7107 16.878C26.7107 17.562 26.8967 18.126 27.2687 18.57C27.6527 19.014 28.1747 19.236 28.8347 19.236C29.4707 19.236 29.9747 19.02 30.3467 18.588C30.7307 18.144 30.9227 17.574 30.9227 16.878ZM34.2629 16.878C34.2629 16.038 34.4549 15.3 34.8389 14.664C35.2229 14.016 35.7509 13.518 36.4229 13.17C37.1069 12.81 37.8749 12.63 38.7269 12.63C39.5789 12.63 40.3409 12.81 41.0129 13.17C41.6849 13.53 42.2069 14.034 42.5789 14.682C42.9629 15.318 43.1549 16.05 43.1549 16.878C43.1549 17.718 42.9629 18.462 42.5789 19.11C42.1949 19.746 41.6669 20.244 40.9949 20.604C40.3229 20.952 39.5669 21.126 38.7269 21.126C37.8629 21.126 37.0889 20.946 36.4049 20.586C35.7329 20.226 35.2049 19.728 34.8209 19.092C34.4489 18.444 34.2629 17.706 34.2629 16.878ZM40.8149 16.878C40.8149 16.182 40.6289 15.618 40.2569 15.186C39.8849 14.754 39.3749 14.538 38.7269 14.538C38.0669 14.538 37.5449 14.76 37.1609 15.204C36.7889 15.636 36.6029 16.194 36.6029 16.878C36.6029 17.562 36.7889 18.126 37.1609 18.57C37.5449 19.014 38.0669 19.236 38.7269 19.236C39.3629 19.236 39.8669 19.02 40.2389 18.588C40.6229 18.144 40.8149 17.574 40.8149 16.878ZM52.4892 16.014V21H50.2572V16.59C50.2572 15.93 50.1072 15.438 49.8072 15.114C49.5192 14.79 49.1412 14.628 48.6732 14.628C48.1092 14.628 47.6652 14.844 47.3412 15.276C47.0172 15.696 46.8552 16.23 46.8552 16.878V21H44.6232V12.774H46.7292V14.16C46.9692 13.704 47.3232 13.344 47.7912 13.08C48.2712 12.804 48.8292 12.666 49.4652 12.666C50.3892 12.666 51.1212 12.954 51.6612 13.53C52.2132 14.106 52.4892 14.934 52.4892 16.014ZM56.5721 16.86H54.5381L54.3221 8.4H56.7881L56.5721 16.86ZM54.2501 19.92C54.2501 19.536 54.3581 19.224 54.5741 18.984C54.8021 18.732 55.1261 18.606 55.5461 18.606C55.9541 18.606 56.2781 18.732 56.5181 18.984C56.7581 19.224 56.8781 19.536 56.8781 19.92C56.8781 20.268 56.7581 20.568 56.5181 20.82C56.2781 21.06 55.9541 21.18 55.5461 21.18C55.1501 21.18 54.8321 21.06 54.5921 20.82C54.3641 20.58 54.2501 20.28 54.2501 19.92Z" fill="#1DD0CC"></path> </svg> 