<?xml version="1.0" encoding="UTF-8"?> <svg xmlns="http://www.w3.org/2000/svg" width="607" height="84" viewBox="0 0 607 84" fill="none"> <rect x="0.5" y="0.5" width="606" height="83" rx="41.5" stroke="#1DD0CC"></rect> <path d="M49.9266 44.33C49.9266 45.428 49.6386 46.409 49.0626 47.273C48.5046 48.137 47.7126 48.812 46.6866 49.298C45.6786 49.766 44.5176 50 43.2036 50H38.2356V31.1H43.2036C44.7696 31.1 46.0026 31.487 46.9026 32.261C47.8026 33.035 48.2526 34.088 48.2526 35.42C48.2526 36.482 47.9916 37.355 47.4696 38.039C46.9476 38.705 46.2996 39.191 45.5256 39.497C46.8756 39.623 47.9466 40.136 48.7386 41.036C49.5306 41.936 49.9266 43.034 49.9266 44.33ZM42.3396 33.098H40.3956V38.849H42.3396C43.5096 38.849 44.4276 38.597 45.0936 38.093C45.7596 37.589 46.0926 36.851 46.0926 35.879C46.0926 34.025 44.8416 33.098 42.3396 33.098ZM42.7176 48.002C44.3556 48.002 45.5976 47.669 46.4436 47.003C47.2896 46.337 47.7126 45.428 47.7126 44.276C47.7126 43.106 47.2986 42.215 46.4706 41.603C45.6426 40.991 44.5446 40.685 43.1766 40.685H40.3956V48.002H42.7176ZM58.8631 38.039V39.983C58.3771 39.893 57.9361 39.848 57.5401 39.848C56.4961 39.848 55.8031 40.172 55.4611 40.82C55.1191 41.45 54.9481 42.404 54.9481 43.682V50H53.0041V38.12H54.8401V39.713C55.4341 38.543 56.4241 37.958 57.8101 37.958C58.2241 37.958 58.5751 37.985 58.8631 38.039ZM63.2538 50H61.3098V38.12H63.2538V50ZM60.9858 33.854C60.9858 33.512 61.1118 33.224 61.3638 32.99C61.6338 32.756 61.9488 32.639 62.3088 32.639C62.6688 32.639 62.9658 32.756 63.1998 32.99C63.4518 33.224 63.5778 33.512 63.5778 33.854C63.5778 34.196 63.4518 34.493 63.1998 34.745C62.9478 34.997 62.6508 35.123 62.3088 35.123C61.9488 35.123 61.6338 34.997 61.3638 34.745C61.1118 34.493 60.9858 34.196 60.9858 33.854ZM77.5419 42.656V50H75.5979V43.088C75.5979 42.008 75.3189 41.198 74.7609 40.658C74.2209 40.118 73.5189 39.848 72.6549 39.848C71.6289 39.848 70.8009 40.226 70.1709 40.982C69.5589 41.738 69.2529 42.71 69.2529 43.898V50H67.3089V38.12H69.1449V40.064C69.5049 39.452 70.0359 38.948 70.7379 38.552C71.4579 38.156 72.2499 37.958 73.1139 37.958C74.4099 37.958 75.4719 38.381 76.2999 39.227C77.1279 40.073 77.5419 41.216 77.5419 42.656ZM90.2989 38.12H92.1349V50.459C92.1349 51.791 91.8559 52.916 91.2979 53.834C90.7399 54.752 89.9839 55.436 89.0299 55.886C88.0939 56.354 87.0589 56.588 85.9249 56.588C83.8729 56.588 82.2169 55.832 80.9569 54.32L82.1989 52.889C83.2249 54.131 84.5029 54.752 86.0329 54.752C87.3469 54.752 88.3639 54.338 89.0839 53.51C89.8219 52.682 90.1909 51.494 90.1909 49.946V48.002C89.8129 48.668 89.2549 49.208 88.5169 49.622C87.7789 50.018 86.9329 50.216 85.9789 50.216C84.9529 50.216 83.9989 49.964 83.1169 49.46C82.2349 48.956 81.5329 48.245 81.0109 47.327C80.4889 46.391 80.2279 45.302 80.2279 44.06C80.2279 42.836 80.4799 41.756 80.9839 40.82C81.5059 39.884 82.1989 39.164 83.0629 38.66C83.9449 38.156 84.9169 37.904 85.9789 37.904C87.0589 37.904 87.9769 38.129 88.7329 38.579C89.5069 39.029 90.0289 39.578 90.2989 40.226V38.12ZM90.1909 44.141V43.871C90.1909 43.133 90.0379 42.449 89.7319 41.819C89.4259 41.189 88.9669 40.685 88.3549 40.307C87.7609 39.911 87.0499 39.713 86.2219 39.713C85.0519 39.713 84.0979 40.1 83.3599 40.874C82.6219 41.63 82.2529 42.683 82.2529 44.033C82.2529 45.347 82.6129 46.409 83.3329 47.219C84.0529 48.011 84.9979 48.407 86.1679 48.407C86.9959 48.407 87.7159 48.209 88.3279 47.813C88.9399 47.399 89.3989 46.868 89.7049 46.22C90.0289 45.554 90.1909 44.861 90.1909 44.141ZM111.828 38.12H113.664V50H111.828V47.786C111.486 48.506 110.928 49.091 110.154 49.541C109.38 49.991 108.498 50.216 107.508 50.216C106.482 50.216 105.528 49.964 104.646 49.46C103.764 48.956 103.062 48.245 102.54 47.327C102.018 46.391 101.757 45.302 101.757 44.06C101.757 42.836 102.009 41.756 102.513 40.82C103.035 39.884 103.728 39.164 104.592 38.66C105.474 38.156 106.446 37.904 107.508 37.904C108.588 37.904 109.506 38.129 110.262 38.579C111.036 39.029 111.558 39.578 111.828 40.226V38.12ZM111.72 44.141V43.871C111.72 43.133 111.567 42.449 111.261 41.819C110.955 41.189 110.496 40.685 109.884 40.307C109.29 39.911 108.579 39.713 107.751 39.713C106.581 39.713 105.627 40.1 104.889 40.874C104.151 41.63 103.782 42.683 103.782 44.033C103.782 45.347 104.142 46.409 104.862 47.219C105.582 48.011 106.527 48.407 107.697 48.407C108.525 48.407 109.245 48.209 109.857 47.813C110.469 47.399 110.928 46.868 111.234 46.22C111.558 45.554 111.72 44.861 111.72 44.141ZM123.259 48.299L124.339 46.895C125.311 47.975 126.535 48.515 128.011 48.515C128.821 48.515 129.478 48.353 129.982 48.029C130.504 47.705 130.765 47.255 130.765 46.679C130.765 46.121 130.531 45.707 130.063 45.437C129.595 45.167 128.857 44.888 127.849 44.6C127.003 44.366 126.319 44.141 125.797 43.925C125.293 43.709 124.861 43.385 124.501 42.953C124.141 42.521 123.961 41.954 123.961 41.252C123.961 40.154 124.384 39.317 125.23 38.741C126.076 38.147 127.147 37.85 128.443 37.85C129.343 37.85 130.099 37.994 130.711 38.282C131.341 38.552 131.899 38.921 132.385 39.389L131.251 40.847C130.891 40.433 130.486 40.127 130.036 39.929C129.604 39.713 129.064 39.605 128.416 39.605C127.642 39.605 127.03 39.749 126.58 40.037C126.13 40.307 125.905 40.667 125.905 41.117C125.905 41.639 126.121 42.017 126.553 42.251C127.003 42.485 127.705 42.719 128.659 42.953C129.505 43.169 130.198 43.385 130.738 43.601C131.278 43.817 131.737 44.159 132.115 44.627C132.511 45.077 132.709 45.698 132.709 46.49C132.709 47.696 132.259 48.632 131.359 49.298C130.477 49.946 129.37 50.27 128.038 50.27C126.166 50.27 124.573 49.613 123.259 48.299ZM143.737 38.12H145.681V50H143.845V48.11C143.503 48.722 142.999 49.217 142.333 49.595C141.667 49.973 140.875 50.162 139.957 50.162C138.625 50.162 137.563 49.721 136.771 48.839C135.997 47.957 135.61 46.652 135.61 44.924V38.12H137.554V44.492C137.554 45.806 137.77 46.778 138.202 47.408C138.652 48.02 139.336 48.326 140.254 48.326C141.352 48.326 142.207 47.948 142.819 47.192C143.431 46.418 143.737 45.428 143.737 44.222V38.12ZM155.31 38.039V39.983C154.824 39.893 154.383 39.848 153.987 39.848C152.943 39.848 152.25 40.172 151.908 40.82C151.566 41.45 151.395 42.404 151.395 43.682V50H149.451V38.12H151.287V39.713C151.881 38.543 152.871 37.958 154.257 37.958C154.671 37.958 155.022 37.985 155.31 38.039ZM169.421 44.06C169.421 45.302 169.16 46.391 168.638 47.327C168.116 48.245 167.414 48.956 166.532 49.46C165.65 49.964 164.696 50.216 163.67 50.216C162.716 50.216 161.87 50.018 161.132 49.622C160.394 49.208 159.836 48.668 159.458 48.002V56.48H157.514V38.12H159.35V40.226C159.62 39.578 160.133 39.029 160.889 38.579C161.663 38.129 162.59 37.904 163.67 37.904C164.732 37.904 165.695 38.156 166.559 38.66C167.441 39.164 168.134 39.884 168.638 40.82C169.16 41.756 169.421 42.836 169.421 44.06ZM167.396 44.033C167.396 42.683 167.027 41.63 166.289 40.874C165.551 40.1 164.597 39.713 163.427 39.713C162.599 39.713 161.879 39.911 161.267 40.307C160.673 40.685 160.223 41.189 159.917 41.819C159.611 42.449 159.458 43.133 159.458 43.871V44.141C159.458 44.861 159.611 45.554 159.917 46.22C160.241 46.868 160.709 47.399 161.321 47.813C161.933 48.209 162.653 48.407 163.481 48.407C164.651 48.407 165.596 48.011 166.316 47.219C167.036 46.409 167.396 45.347 167.396 44.033ZM178.158 38.039V39.983C177.672 39.893 177.231 39.848 176.835 39.848C175.791 39.848 175.098 40.172 174.756 40.82C174.414 41.45 174.243 42.404 174.243 43.682V50H172.299V38.12H174.135V39.713C174.729 38.543 175.719 37.958 177.105 37.958C177.519 37.958 177.87 37.985 178.158 38.039ZM182.548 50H180.604V38.12H182.548V50ZM180.28 33.854C180.28 33.512 180.406 33.224 180.658 32.99C180.928 32.756 181.243 32.639 181.603 32.639C181.963 32.639 182.26 32.756 182.494 32.99C182.746 33.224 182.872 33.512 182.872 33.854C182.872 34.196 182.746 34.493 182.494 34.745C182.242 34.997 181.945 35.123 181.603 35.123C181.243 35.123 180.928 34.997 180.658 34.745C180.406 34.493 180.28 34.196 180.28 33.854ZM185.659 48.299L186.739 46.895C187.711 47.975 188.935 48.515 190.411 48.515C191.221 48.515 191.878 48.353 192.382 48.029C192.904 47.705 193.165 47.255 193.165 46.679C193.165 46.121 192.931 45.707 192.463 45.437C191.995 45.167 191.257 44.888 190.249 44.6C189.403 44.366 188.719 44.141 188.197 43.925C187.693 43.709 187.261 43.385 186.901 42.953C186.541 42.521 186.361 41.954 186.361 41.252C186.361 40.154 186.784 39.317 187.63 38.741C188.476 38.147 189.547 37.85 190.843 37.85C191.743 37.85 192.499 37.994 193.111 38.282C193.741 38.552 194.299 38.921 194.785 39.389L193.651 40.847C193.291 40.433 192.886 40.127 192.436 39.929C192.004 39.713 191.464 39.605 190.816 39.605C190.042 39.605 189.43 39.749 188.98 40.037C188.53 40.307 188.305 40.667 188.305 41.117C188.305 41.639 188.521 42.017 188.953 42.251C189.403 42.485 190.105 42.719 191.059 42.953C191.905 43.169 192.598 43.385 193.138 43.601C193.678 43.817 194.137 44.159 194.515 44.627C194.911 45.077 195.109 45.698 195.109 46.49C195.109 47.696 194.659 48.632 193.759 49.298C192.877 49.946 191.77 50.27 190.438 50.27C188.566 50.27 186.973 49.613 185.659 48.299ZM209.133 44.438H199.305C199.377 45.662 199.809 46.643 200.601 47.381C201.411 48.101 202.41 48.461 203.598 48.461C204.354 48.461 205.056 48.317 205.704 48.029C206.37 47.723 206.901 47.309 207.297 46.787L208.566 47.948C208.008 48.686 207.279 49.253 206.379 49.649C205.479 50.027 204.516 50.216 203.49 50.216C202.32 50.216 201.267 49.964 200.331 49.46C199.395 48.956 198.657 48.245 198.117 47.327C197.595 46.391 197.334 45.302 197.334 44.06C197.334 42.782 197.613 41.684 198.171 40.766C198.729 39.83 199.467 39.119 200.385 38.633C201.321 38.147 202.329 37.904 203.409 37.904C204.579 37.904 205.596 38.183 206.46 38.741C207.324 39.299 207.981 40.028 208.431 40.928C208.899 41.828 209.133 42.773 209.133 43.763V44.438ZM199.413 42.791H207.108C206.928 41.873 206.478 41.126 205.758 40.55C205.038 39.956 204.192 39.659 203.22 39.659C202.284 39.659 201.465 39.938 200.763 40.496C200.079 41.054 199.629 41.819 199.413 42.791ZM211.233 42.602H218.469V44.357H211.233V42.602ZM233.719 44.06C233.719 45.302 233.458 46.391 232.936 47.327C232.414 48.245 231.712 48.956 230.83 49.46C229.948 49.964 228.994 50.216 227.968 50.216C227.014 50.216 226.168 50.018 225.43 49.622C224.692 49.208 224.134 48.668 223.756 48.002V56.48H221.812V38.12H223.648V40.226C223.918 39.578 224.431 39.029 225.187 38.579C225.961 38.129 226.888 37.904 227.968 37.904C229.03 37.904 229.993 38.156 230.857 38.66C231.739 39.164 232.432 39.884 232.936 40.82C233.458 41.756 233.719 42.836 233.719 44.06ZM231.694 44.033C231.694 42.683 231.325 41.63 230.587 40.874C229.849 40.1 228.895 39.713 227.725 39.713C226.897 39.713 226.177 39.911 225.565 40.307C224.971 40.685 224.521 41.189 224.215 41.819C223.909 42.449 223.756 43.133 223.756 43.871V44.141C223.756 44.861 223.909 45.554 224.215 46.22C224.539 46.868 225.007 47.399 225.619 47.813C226.231 48.209 226.951 48.407 227.779 48.407C228.949 48.407 229.894 48.011 230.614 47.219C231.334 46.409 231.694 45.347 231.694 44.033ZM238.811 50H236.867V38.12H238.811V50ZM236.543 33.854C236.543 33.512 236.669 33.224 236.921 32.99C237.191 32.756 237.506 32.639 237.866 32.639C238.226 32.639 238.523 32.756 238.757 32.99C239.009 33.224 239.135 33.512 239.135 33.854C239.135 34.196 239.009 34.493 238.757 34.745C238.505 34.997 238.208 35.123 237.866 35.123C237.506 35.123 237.191 34.997 236.921 34.745C236.669 34.493 236.543 34.196 236.543 33.854ZM251.344 50H241.786V49.163L248.563 39.875H241.948V38.12H251.452V38.957L244.648 48.245H251.344V50ZM262.491 50H252.933V49.163L259.71 39.875H253.095V38.12H262.599V38.957L255.795 48.245H262.491V50ZM274.34 38.12H276.176V50H274.34V47.786C273.998 48.506 273.44 49.091 272.666 49.541C271.892 49.991 271.01 50.216 270.02 50.216C268.994 50.216 268.04 49.964 267.158 49.46C266.276 48.956 265.574 48.245 265.052 47.327C264.53 46.391 264.269 45.302 264.269 44.06C264.269 42.836 264.521 41.756 265.025 40.82C265.547 39.884 266.24 39.164 267.104 38.66C267.986 38.156 268.958 37.904 270.02 37.904C271.1 37.904 272.018 38.129 272.774 38.579C273.548 39.029 274.07 39.578 274.34 40.226V38.12ZM274.232 44.141V43.871C274.232 43.133 274.079 42.449 273.773 41.819C273.467 41.189 273.008 40.685 272.396 40.307C271.802 39.911 271.091 39.713 270.263 39.713C269.093 39.713 268.139 40.1 267.401 40.874C266.663 41.63 266.294 42.683 266.294 44.033C266.294 45.347 266.654 46.409 267.374 47.219C268.094 48.011 269.039 48.407 270.209 48.407C271.037 48.407 271.757 48.209 272.369 47.813C272.981 47.399 273.44 46.868 273.746 46.22C274.07 45.554 274.232 44.861 274.232 44.141ZM292.224 48.299V50.027C291.774 50.099 291.315 50.135 290.847 50.135C289.551 50.135 288.606 49.829 288.012 49.217C287.418 48.587 287.121 47.57 287.121 46.166V39.875H285.096V38.12H287.121V33.8H289.065V38.12H292.116V39.875H289.065V45.896C289.065 46.706 289.2 47.327 289.47 47.759C289.758 48.173 290.316 48.38 291.144 48.38C291.486 48.38 291.846 48.353 292.224 48.299ZM293.623 44.006C293.623 42.854 293.884 41.819 294.406 40.901C294.946 39.965 295.675 39.236 296.593 38.714C297.511 38.174 298.546 37.904 299.698 37.904C300.85 37.904 301.885 38.174 302.803 38.714C303.721 39.236 304.441 39.965 304.963 40.901C305.485 41.819 305.746 42.854 305.746 44.006C305.746 45.176 305.476 46.238 304.936 47.192C304.414 48.128 303.694 48.866 302.776 49.406C301.858 49.946 300.832 50.216 299.698 50.216C298.564 50.216 297.529 49.946 296.593 49.406C295.675 48.848 294.946 48.101 294.406 47.165C293.884 46.211 293.623 45.158 293.623 44.006ZM303.802 44.006C303.802 42.71 303.424 41.666 302.668 40.874C301.912 40.064 300.922 39.659 299.698 39.659C298.474 39.659 297.475 40.064 296.701 40.874C295.945 41.666 295.567 42.71 295.567 44.006C295.567 45.32 295.954 46.391 296.728 47.219C297.502 48.047 298.492 48.461 299.698 48.461C300.904 48.461 301.885 48.047 302.641 47.219C303.415 46.391 303.802 45.32 303.802 44.006ZM319.623 47.246L323.052 38.12H324.942V38.39L318.138 56.48H316.248V56.21L318.651 49.838L313.737 38.39V38.12H315.762L319.623 47.246ZM325.93 44.006C325.93 42.854 326.191 41.819 326.713 40.901C327.253 39.965 327.982 39.236 328.9 38.714C329.818 38.174 330.853 37.904 332.005 37.904C333.157 37.904 334.192 38.174 335.11 38.714C336.028 39.236 336.748 39.965 337.27 40.901C337.792 41.819 338.053 42.854 338.053 44.006C338.053 45.176 337.783 46.238 337.243 47.192C336.721 48.128 336.001 48.866 335.083 49.406C334.165 49.946 333.139 50.216 332.005 50.216C330.871 50.216 329.836 49.946 328.9 49.406C327.982 48.848 327.253 48.101 326.713 47.165C326.191 46.211 325.93 45.158 325.93 44.006ZM336.109 44.006C336.109 42.71 335.731 41.666 334.975 40.874C334.219 40.064 333.229 39.659 332.005 39.659C330.781 39.659 329.782 40.064 329.008 40.874C328.252 41.666 327.874 42.71 327.874 44.006C327.874 45.32 328.261 46.391 329.035 47.219C329.809 48.047 330.799 48.461 332.005 48.461C333.211 48.461 334.192 48.047 334.948 47.219C335.722 46.391 336.109 45.32 336.109 44.006ZM348.859 38.12H350.803V50H348.967V48.11C348.625 48.722 348.121 49.217 347.455 49.595C346.789 49.973 345.997 50.162 345.079 50.162C343.747 50.162 342.685 49.721 341.893 48.839C341.119 47.957 340.732 46.652 340.732 44.924V38.12H342.676V44.492C342.676 45.806 342.892 46.778 343.324 47.408C343.774 48.02 344.458 48.326 345.376 48.326C346.474 48.326 347.329 47.948 347.941 47.192C348.553 46.418 348.859 45.428 348.859 44.222V38.12ZM360.432 38.039V39.983C359.946 39.893 359.505 39.848 359.109 39.848C358.065 39.848 357.372 40.172 357.03 40.82C356.688 41.45 356.517 42.404 356.517 43.682V50H354.573V38.12H356.409V39.713C357.003 38.543 357.993 37.958 359.379 37.958C359.793 37.958 360.144 37.985 360.432 38.039ZM371.701 35.582V38.12H374.644V39.875H371.701V50H369.757V39.875H367.732V38.12H369.757V35.447C369.757 33.935 370.135 32.81 370.891 32.072C371.647 31.334 372.673 30.965 373.969 30.965C374.257 30.965 374.536 30.992 374.806 31.046V32.882C374.68 32.864 374.518 32.855 374.32 32.855C373.456 32.855 372.799 33.053 372.349 33.449C371.917 33.845 371.701 34.556 371.701 35.582ZM382.641 38.039V39.983C382.155 39.893 381.714 39.848 381.318 39.848C380.274 39.848 379.581 40.172 379.239 40.82C378.897 41.45 378.726 42.404 378.726 43.682V50H376.782V38.12H378.618V39.713C379.212 38.543 380.202 37.958 381.588 37.958C382.002 37.958 382.353 37.985 382.641 38.039ZM387.031 50H385.087V38.12H387.031V50ZM384.763 33.854C384.763 33.512 384.889 33.224 385.141 32.99C385.411 32.756 385.726 32.639 386.086 32.639C386.446 32.639 386.743 32.756 386.977 32.99C387.229 33.224 387.355 33.512 387.355 33.854C387.355 34.196 387.229 34.493 386.977 34.745C386.725 34.997 386.428 35.123 386.086 35.123C385.726 35.123 385.411 34.997 385.141 34.745C384.889 34.493 384.763 34.196 384.763 33.854ZM401.994 44.438H392.166C392.238 45.662 392.67 46.643 393.462 47.381C394.272 48.101 395.271 48.461 396.459 48.461C397.215 48.461 397.917 48.317 398.565 48.029C399.231 47.723 399.762 47.309 400.158 46.787L401.427 47.948C400.869 48.686 400.14 49.253 399.24 49.649C398.34 50.027 397.377 50.216 396.351 50.216C395.181 50.216 394.128 49.964 393.192 49.46C392.256 48.956 391.518 48.245 390.978 47.327C390.456 46.391 390.195 45.302 390.195 44.06C390.195 42.782 390.474 41.684 391.032 40.766C391.59 39.83 392.328 39.119 393.246 38.633C394.182 38.147 395.19 37.904 396.27 37.904C397.44 37.904 398.457 38.183 399.321 38.741C400.185 39.299 400.842 40.028 401.292 40.928C401.76 41.828 401.994 42.773 401.994 43.763V44.438ZM392.274 42.791H399.969C399.789 41.873 399.339 41.126 398.619 40.55C397.899 39.956 397.053 39.659 396.081 39.659C395.145 39.659 394.326 39.938 393.624 40.496C392.94 41.054 392.49 41.819 392.274 42.791ZM414.787 42.656V50H412.843V43.088C412.843 42.008 412.564 41.198 412.006 40.658C411.466 40.118 410.764 39.848 409.9 39.848C408.874 39.848 408.046 40.226 407.416 40.982C406.804 41.738 406.498 42.71 406.498 43.898V50H404.554V38.12H406.39V40.064C406.75 39.452 407.281 38.948 407.983 38.552C408.703 38.156 409.495 37.958 410.359 37.958C411.655 37.958 412.717 38.381 413.545 39.227C414.373 40.073 414.787 41.216 414.787 42.656ZM427.436 31.1H429.38V50H427.544V47.786C427.202 48.506 426.644 49.091 425.87 49.541C425.096 49.991 424.214 50.216 423.224 50.216C422.198 50.216 421.244 49.964 420.362 49.46C419.48 48.956 418.778 48.245 418.256 47.327C417.734 46.391 417.473 45.302 417.473 44.06C417.473 42.836 417.725 41.756 418.229 40.82C418.751 39.884 419.444 39.164 420.308 38.66C421.19 38.156 422.162 37.904 423.224 37.904C424.25 37.904 425.123 38.111 425.843 38.525C426.581 38.921 427.112 39.416 427.436 40.01V31.1ZM427.436 44.141V43.871C427.436 43.133 427.283 42.449 426.977 41.819C426.671 41.189 426.212 40.685 425.6 40.307C425.006 39.911 424.295 39.713 423.467 39.713C422.297 39.713 421.343 40.1 420.605 40.874C419.867 41.63 419.498 42.683 419.498 44.033C419.498 45.347 419.858 46.409 420.578 47.219C421.298 48.011 422.243 48.407 423.413 48.407C424.241 48.407 424.961 48.209 425.573 47.813C426.185 47.399 426.644 46.868 426.95 46.22C427.274 45.554 427.436 44.861 427.436 44.141ZM430.306 48.299L431.386 46.895C432.358 47.975 433.582 48.515 435.058 48.515C435.868 48.515 436.525 48.353 437.029 48.029C437.551 47.705 437.812 47.255 437.812 46.679C437.812 46.121 437.578 45.707 437.11 45.437C436.642 45.167 435.904 44.888 434.896 44.6C434.05 44.366 433.366 44.141 432.844 43.925C432.34 43.709 431.908 43.385 431.548 42.953C431.188 42.521 431.008 41.954 431.008 41.252C431.008 40.154 431.431 39.317 432.277 38.741C433.123 38.147 434.194 37.85 435.49 37.85C436.39 37.85 437.146 37.994 437.758 38.282C438.388 38.552 438.946 38.921 439.432 39.389L438.298 40.847C437.938 40.433 437.533 40.127 437.083 39.929C436.651 39.713 436.111 39.605 435.463 39.605C434.689 39.605 434.077 39.749 433.627 40.037C433.177 40.307 432.952 40.667 432.952 41.117C432.952 41.639 433.168 42.017 433.6 42.251C434.05 42.485 434.752 42.719 435.706 42.953C436.552 43.169 437.245 43.385 437.785 43.601C438.325 43.817 438.784 44.159 439.162 44.627C439.558 45.077 439.756 45.698 439.756 46.49C439.756 47.696 439.306 48.632 438.406 49.298C437.524 49.946 436.417 50.27 435.085 50.27C433.213 50.27 431.62 49.613 430.306 48.299ZM445.276 43.79H443.116V31.1H445.276V43.79ZM442.684 48.839C442.684 48.407 442.81 48.056 443.062 47.786C443.332 47.498 443.701 47.354 444.169 47.354C444.637 47.354 445.006 47.498 445.276 47.786C445.546 48.056 445.681 48.407 445.681 48.839C445.681 49.235 445.546 49.577 445.276 49.865C445.006 50.135 444.637 50.27 444.169 50.27C443.719 50.27 443.359 50.135 443.089 49.865C442.819 49.595 442.684 49.253 442.684 48.839Z" fill="#F4F4F4"></path> </svg> 