<?xml version="1.0" encoding="UTF-8"?> <svg xmlns="http://www.w3.org/2000/svg" width="445" height="84" viewBox="0 0 445 84" fill="none"> <rect x="0.5" y="0.5" width="444" height="83" rx="41.5" stroke="#1DD0CC"></rect> <path d="M48.9364 42.442H58.4404C58.4404 44.548 58.0624 46.339 57.3064 47.815C56.5504 49.273 55.4794 50.38 54.0934 51.136C52.7254 51.892 51.1234 52.27 49.2874 52.27C47.2894 52.27 45.5254 51.847 43.9954 51.001C42.4834 50.155 41.3134 49.003 40.4854 47.545C39.6574 46.069 39.2434 44.422 39.2434 42.604C39.2434 40.858 39.6304 39.247 40.4044 37.771C41.1784 36.277 42.3214 35.08 43.8334 34.18C45.3454 33.28 47.1634 32.83 49.2874 32.83C50.7274 32.83 52.0954 33.055 53.3914 33.505C54.7054 33.937 55.8664 34.648 56.8744 35.638L55.4704 37.312C54.6424 36.412 53.6704 35.764 52.5544 35.368C51.4564 34.972 50.3224 34.774 49.1524 34.774C47.5864 34.774 46.2184 35.143 45.0484 35.881C43.8784 36.619 42.9874 37.591 42.3754 38.797C41.7634 39.985 41.4574 41.263 41.4574 42.631C41.4574 44.071 41.7904 45.376 42.4564 46.546C43.1404 47.716 44.0854 48.643 45.2914 49.327C46.5154 49.993 47.8924 50.326 49.4224 50.326C51.2584 50.326 52.7974 49.831 54.0394 48.841C55.2994 47.833 56.0914 46.366 56.4154 44.44H48.9364V42.442ZM60.4865 46.006C60.4865 44.854 60.7475 43.819 61.2695 42.901C61.8095 41.965 62.5385 41.236 63.4565 40.714C64.3745 40.174 65.4095 39.904 66.5615 39.904C67.7135 39.904 68.7485 40.174 69.6665 40.714C70.5845 41.236 71.3045 41.965 71.8265 42.901C72.3485 43.819 72.6095 44.854 72.6095 46.006C72.6095 47.176 72.3395 48.238 71.7995 49.192C71.2775 50.128 70.5575 50.866 69.6395 51.406C68.7215 51.946 67.6955 52.216 66.5615 52.216C65.4275 52.216 64.3925 51.946 63.4565 51.406C62.5385 50.848 61.8095 50.101 61.2695 49.165C60.7475 48.211 60.4865 47.158 60.4865 46.006ZM70.6655 46.006C70.6655 44.71 70.2875 43.666 69.5315 42.874C68.7755 42.064 67.7855 41.659 66.5615 41.659C65.3375 41.659 64.3385 42.064 63.5645 42.874C62.8085 43.666 62.4305 44.71 62.4305 46.006C62.4305 47.32 62.8175 48.391 63.5915 49.219C64.3655 50.047 65.3555 50.461 66.5615 50.461C67.7675 50.461 68.7485 50.047 69.5045 49.219C70.2785 48.391 70.6655 47.32 70.6655 46.006ZM81.3567 46.006C81.3567 44.854 81.6177 43.819 82.1397 42.901C82.6797 41.965 83.4087 41.236 84.3267 40.714C85.2447 40.174 86.2797 39.904 87.4317 39.904C88.5837 39.904 89.6187 40.174 90.5367 40.714C91.4547 41.236 92.1747 41.965 92.6967 42.901C93.2187 43.819 93.4797 44.854 93.4797 46.006C93.4797 47.176 93.2097 48.238 92.6697 49.192C92.1477 50.128 91.4277 50.866 90.5097 51.406C89.5917 51.946 88.5657 52.216 87.4317 52.216C86.2977 52.216 85.2627 51.946 84.3267 51.406C83.4087 50.848 82.6797 50.101 82.1397 49.165C81.6177 48.211 81.3567 47.158 81.3567 46.006ZM91.5357 46.006C91.5357 44.71 91.1577 43.666 90.4017 42.874C89.6457 42.064 88.6557 41.659 87.4317 41.659C86.2077 41.659 85.2087 42.064 84.4347 42.874C83.6787 43.666 83.3007 44.71 83.3007 46.006C83.3007 47.32 83.6877 48.391 84.4617 49.219C85.2357 50.047 86.2257 50.461 87.4317 50.461C88.6377 50.461 89.6187 50.047 90.3747 49.219C91.1487 48.391 91.5357 47.32 91.5357 46.006ZM104.285 40.12H106.229V52H104.393V50.11C104.051 50.722 103.547 51.217 102.881 51.595C102.215 51.973 101.423 52.162 100.505 52.162C99.1731 52.162 98.1111 51.721 97.3191 50.839C96.5451 49.957 96.1581 48.652 96.1581 46.924V40.12H98.1021V46.492C98.1021 47.806 98.3181 48.778 98.7501 49.408C99.2001 50.02 99.8841 50.326 100.802 50.326C101.9 50.326 102.755 49.948 103.367 49.192C103.979 48.418 104.285 47.428 104.285 46.222V40.12ZM115.508 50.299V52.027C115.058 52.099 114.599 52.135 114.131 52.135C112.835 52.135 111.89 51.829 111.296 51.217C110.702 50.587 110.405 49.57 110.405 48.166V41.875H108.38V40.12H110.405V35.8H112.349V40.12H115.4V41.875H112.349V47.896C112.349 48.706 112.484 49.327 112.754 49.759C113.042 50.173 113.6 50.38 114.428 50.38C114.77 50.38 115.13 50.353 115.508 50.299ZM123.651 46.006C123.651 44.854 123.912 43.819 124.434 42.901C124.974 41.965 125.703 41.236 126.621 40.714C127.539 40.174 128.574 39.904 129.726 39.904C130.878 39.904 131.913 40.174 132.831 40.714C133.749 41.236 134.469 41.965 134.991 42.901C135.513 43.819 135.774 44.854 135.774 46.006C135.774 47.176 135.504 48.238 134.964 49.192C134.442 50.128 133.722 50.866 132.804 51.406C131.886 51.946 130.86 52.216 129.726 52.216C128.592 52.216 127.557 51.946 126.621 51.406C125.703 50.848 124.974 50.101 124.434 49.165C123.912 48.211 123.651 47.158 123.651 46.006ZM133.83 46.006C133.83 44.71 133.452 43.666 132.696 42.874C131.94 42.064 130.95 41.659 129.726 41.659C128.502 41.659 127.503 42.064 126.729 42.874C125.973 43.666 125.595 44.71 125.595 46.006C125.595 47.32 125.982 48.391 126.756 49.219C127.53 50.047 128.52 50.461 129.726 50.461C130.932 50.461 131.913 50.047 132.669 49.219C133.443 48.391 133.83 47.32 133.83 46.006ZM141.017 37.582V40.12H143.96V41.875H141.017V52H139.073V41.875H137.048V40.12H139.073V37.447C139.073 35.935 139.451 34.81 140.207 34.072C140.963 33.334 141.989 32.965 143.285 32.965C143.573 32.965 143.852 32.992 144.122 33.046V34.882C143.996 34.864 143.834 34.855 143.636 34.855C142.772 34.855 142.115 35.053 141.665 35.449C141.233 35.845 141.017 36.556 141.017 37.582ZM158.349 50.299V52.027C157.899 52.099 157.44 52.135 156.972 52.135C155.676 52.135 154.731 51.829 154.137 51.217C153.543 50.587 153.246 49.57 153.246 48.166V41.875H151.221V40.12H153.246V35.8H155.19V40.12H158.241V41.875H155.19V47.896C155.19 48.706 155.325 49.327 155.595 49.759C155.883 50.173 156.441 50.38 157.269 50.38C157.611 50.38 157.971 50.353 158.349 50.299ZM159.748 46.006C159.748 44.854 160.009 43.819 160.531 42.901C161.071 41.965 161.8 41.236 162.718 40.714C163.636 40.174 164.671 39.904 165.823 39.904C166.975 39.904 168.01 40.174 168.928 40.714C169.846 41.236 170.566 41.965 171.088 42.901C171.61 43.819 171.871 44.854 171.871 46.006C171.871 47.176 171.601 48.238 171.061 49.192C170.539 50.128 169.819 50.866 168.901 51.406C167.983 51.946 166.957 52.216 165.823 52.216C164.689 52.216 163.654 51.946 162.718 51.406C161.8 50.848 161.071 50.101 160.531 49.165C160.009 48.211 159.748 47.158 159.748 46.006ZM169.927 46.006C169.927 44.71 169.549 43.666 168.793 42.874C168.037 42.064 167.047 41.659 165.823 41.659C164.599 41.659 163.6 42.064 162.826 42.874C162.07 43.666 161.692 44.71 161.692 46.006C161.692 47.32 162.079 48.391 162.853 49.219C163.627 50.047 164.617 50.461 165.823 50.461C167.029 50.461 168.01 50.047 168.766 49.219C169.54 48.391 169.927 47.32 169.927 46.006ZM184.384 48.085L186.841 40.12H188.596V40.39L184.978 52.108H184.033L180.928 44.197L177.796 52.108H176.77L173.152 40.39V40.12H175.096L177.58 48.112L180.658 40.12H181.333L184.384 48.085ZM201.261 44.656V52H199.317V45.088C199.317 44.008 199.038 43.198 198.48 42.658C197.94 42.118 197.238 41.848 196.374 41.848C195.348 41.848 194.52 42.226 193.89 42.982C193.278 43.738 192.972 44.71 192.972 45.898V52H191.028V40.12H192.864V42.064C193.224 41.452 193.755 40.948 194.457 40.552C195.177 40.156 195.969 39.958 196.833 39.958C198.129 39.958 199.191 40.381 200.019 41.227C200.847 42.073 201.261 43.216 201.261 44.656ZM220.762 40.12H222.598V52H220.762V49.786C220.42 50.506 219.862 51.091 219.088 51.541C218.314 51.991 217.432 52.216 216.442 52.216C215.416 52.216 214.462 51.964 213.58 51.46C212.698 50.956 211.996 50.245 211.474 49.327C210.952 48.391 210.691 47.302 210.691 46.06C210.691 44.836 210.943 43.756 211.447 42.82C211.969 41.884 212.662 41.164 213.526 40.66C214.408 40.156 215.38 39.904 216.442 39.904C217.522 39.904 218.44 40.129 219.196 40.579C219.97 41.029 220.492 41.578 220.762 42.226V40.12ZM220.654 46.141V45.871C220.654 45.133 220.501 44.449 220.195 43.819C219.889 43.189 219.43 42.685 218.818 42.307C218.224 41.911 217.513 41.713 216.685 41.713C215.515 41.713 214.561 42.1 213.823 42.874C213.085 43.63 212.716 44.683 212.716 46.033C212.716 47.347 213.076 48.409 213.796 49.219C214.516 50.011 215.461 50.407 216.631 50.407C217.459 50.407 218.179 50.209 218.791 49.813C219.403 49.399 219.862 48.868 220.168 48.22C220.492 47.554 220.654 46.861 220.654 46.141ZM236.627 44.656V52H234.683V45.088C234.683 44.008 234.404 43.198 233.846 42.658C233.306 42.118 232.604 41.848 231.74 41.848C230.714 41.848 229.886 42.226 229.256 42.982C228.644 43.738 228.338 44.71 228.338 45.898V52H226.394V40.12H228.23V42.064C228.59 41.452 229.121 40.948 229.823 40.552C230.543 40.156 231.335 39.958 232.199 39.958C233.495 39.958 234.557 40.381 235.385 41.227C236.213 42.073 236.627 43.216 236.627 44.656ZM249.276 33.1H251.22V52H249.384V49.786C249.042 50.506 248.484 51.091 247.71 51.541C246.936 51.991 246.054 52.216 245.064 52.216C244.038 52.216 243.084 51.964 242.202 51.46C241.32 50.956 240.618 50.245 240.096 49.327C239.574 48.391 239.313 47.302 239.313 46.06C239.313 44.836 239.565 43.756 240.069 42.82C240.591 41.884 241.284 41.164 242.148 40.66C243.03 40.156 244.002 39.904 245.064 39.904C246.09 39.904 246.963 40.111 247.683 40.525C248.421 40.921 248.952 41.416 249.276 42.01V33.1ZM249.276 46.141V45.871C249.276 45.133 249.123 44.449 248.817 43.819C248.511 43.189 248.052 42.685 247.44 42.307C246.846 41.911 246.135 41.713 245.307 41.713C244.137 41.713 243.183 42.1 242.445 42.874C241.707 43.63 241.338 44.683 241.338 46.033C241.338 47.347 241.698 48.409 242.418 49.219C243.138 50.011 244.083 50.407 245.253 50.407C246.081 50.407 246.801 50.209 247.413 49.813C248.025 49.399 248.484 48.868 248.79 48.22C249.114 47.554 249.276 46.861 249.276 46.141ZM271.966 44.656V52H270.022V45.088C270.022 44.008 269.743 43.198 269.185 42.658C268.645 42.118 267.943 41.848 267.079 41.848C266.053 41.848 265.225 42.226 264.595 42.982C263.983 43.738 263.677 44.71 263.677 45.898V52H261.733V33.1H263.677V41.875C264.055 41.317 264.586 40.858 265.27 40.498C265.954 40.138 266.71 39.958 267.538 39.958C268.834 39.958 269.896 40.381 270.724 41.227C271.552 42.073 271.966 43.216 271.966 44.656ZM284.723 40.12H286.559V52H284.723V49.786C284.381 50.506 283.823 51.091 283.049 51.541C282.275 51.991 281.393 52.216 280.403 52.216C279.377 52.216 278.423 51.964 277.541 51.46C276.659 50.956 275.957 50.245 275.435 49.327C274.913 48.391 274.652 47.302 274.652 46.06C274.652 44.836 274.904 43.756 275.408 42.82C275.93 41.884 276.623 41.164 277.487 40.66C278.369 40.156 279.341 39.904 280.403 39.904C281.483 39.904 282.401 40.129 283.157 40.579C283.931 41.029 284.453 41.578 284.723 42.226V40.12ZM284.615 46.141V45.871C284.615 45.133 284.462 44.449 284.156 43.819C283.85 43.189 283.391 42.685 282.779 42.307C282.185 41.911 281.474 41.713 280.646 41.713C279.476 41.713 278.522 42.1 277.784 42.874C277.046 43.63 276.677 44.683 276.677 46.033C276.677 47.347 277.037 48.409 277.757 49.219C278.477 50.011 279.422 50.407 280.592 50.407C281.42 50.407 282.14 50.209 282.752 49.813C283.364 49.399 283.823 48.868 284.129 48.22C284.453 47.554 284.615 46.861 284.615 46.141ZM294.432 48.463L297.888 40.12H299.724V40.39L294.648 52.162H294.054L288.708 40.39V40.12H290.733L294.432 48.463ZM312.49 46.438H302.662C302.734 47.662 303.166 48.643 303.958 49.381C304.768 50.101 305.767 50.461 306.955 50.461C307.711 50.461 308.413 50.317 309.061 50.029C309.727 49.723 310.258 49.309 310.654 48.787L311.923 49.948C311.365 50.686 310.636 51.253 309.736 51.649C308.836 52.027 307.873 52.216 306.847 52.216C305.677 52.216 304.624 51.964 303.688 51.46C302.752 50.956 302.014 50.245 301.474 49.327C300.952 48.391 300.691 47.302 300.691 46.06C300.691 44.782 300.97 43.684 301.528 42.766C302.086 41.83 302.824 41.119 303.742 40.633C304.678 40.147 305.686 39.904 306.766 39.904C307.936 39.904 308.953 40.183 309.817 40.741C310.681 41.299 311.338 42.028 311.788 42.928C312.256 43.828 312.49 44.773 312.49 45.763V46.438ZM302.77 44.791H310.465C310.285 43.873 309.835 43.126 309.115 42.55C308.395 41.956 307.549 41.659 306.577 41.659C305.641 41.659 304.822 41.938 304.12 42.496C303.436 43.054 302.986 43.819 302.77 44.791ZM330.972 40.12H332.808V52H330.972V49.786C330.63 50.506 330.072 51.091 329.298 51.541C328.524 51.991 327.642 52.216 326.652 52.216C325.626 52.216 324.672 51.964 323.79 51.46C322.908 50.956 322.206 50.245 321.684 49.327C321.162 48.391 320.901 47.302 320.901 46.06C320.901 44.836 321.153 43.756 321.657 42.82C322.179 41.884 322.872 41.164 323.736 40.66C324.618 40.156 325.59 39.904 326.652 39.904C327.732 39.904 328.65 40.129 329.406 40.579C330.18 41.029 330.702 41.578 330.972 42.226V40.12ZM330.864 46.141V45.871C330.864 45.133 330.711 44.449 330.405 43.819C330.099 43.189 329.64 42.685 329.028 42.307C328.434 41.911 327.723 41.713 326.895 41.713C325.725 41.713 324.771 42.1 324.033 42.874C323.295 43.63 322.926 44.683 322.926 46.033C322.926 47.347 323.286 48.409 324.006 49.219C324.726 50.011 325.671 50.407 326.841 50.407C327.669 50.407 328.389 50.209 329.001 49.813C329.613 49.399 330.072 48.868 330.378 48.22C330.702 47.554 330.864 46.861 330.864 46.141ZM355.282 46.06C355.282 47.302 355.021 48.391 354.499 49.327C353.977 50.245 353.275 50.956 352.393 51.46C351.511 51.964 350.557 52.216 349.531 52.216C348.577 52.216 347.731 52.018 346.993 51.622C346.255 51.208 345.697 50.668 345.319 50.002V58.48H343.375V40.12H345.211V42.226C345.481 41.578 345.994 41.029 346.75 40.579C347.524 40.129 348.451 39.904 349.531 39.904C350.593 39.904 351.556 40.156 352.42 40.66C353.302 41.164 353.995 41.884 354.499 42.82C355.021 43.756 355.282 44.836 355.282 46.06ZM353.257 46.033C353.257 44.683 352.888 43.63 352.15 42.874C351.412 42.1 350.458 41.713 349.288 41.713C348.46 41.713 347.74 41.911 347.128 42.307C346.534 42.685 346.084 43.189 345.778 43.819C345.472 44.449 345.319 45.133 345.319 45.871V46.141C345.319 46.861 345.472 47.554 345.778 48.22C346.102 48.868 346.57 49.399 347.182 49.813C347.794 50.209 348.514 50.407 349.342 50.407C350.512 50.407 351.457 50.011 352.177 49.219C352.897 48.409 353.257 47.347 353.257 46.033ZM360.374 52H358.43V40.12H360.374V52ZM358.106 35.854C358.106 35.512 358.232 35.224 358.484 34.99C358.754 34.756 359.069 34.639 359.429 34.639C359.789 34.639 360.086 34.756 360.32 34.99C360.572 35.224 360.698 35.512 360.698 35.854C360.698 36.196 360.572 36.493 360.32 36.745C360.068 36.997 359.771 37.123 359.429 37.123C359.069 37.123 358.754 36.997 358.484 36.745C358.232 36.493 358.106 36.196 358.106 35.854ZM363.538 46.006C363.538 44.764 363.808 43.684 364.348 42.766C364.888 41.848 365.626 41.146 366.562 40.66C367.498 40.156 368.542 39.904 369.694 39.904C370.594 39.904 371.44 40.057 372.232 40.363C373.042 40.669 373.717 41.101 374.257 41.659L373.123 43.171C372.727 42.703 372.232 42.334 371.638 42.064C371.044 41.794 370.405 41.659 369.721 41.659C368.515 41.659 367.507 42.055 366.697 42.847C365.887 43.621 365.482 44.665 365.482 45.979C365.482 46.843 365.671 47.617 366.049 48.301C366.427 48.985 366.949 49.516 367.615 49.894C368.281 50.272 369.028 50.461 369.856 50.461C370.558 50.461 371.197 50.326 371.773 50.056C372.367 49.786 372.853 49.417 373.231 48.949L374.446 50.164C373.924 50.794 373.258 51.298 372.448 51.676C371.638 52.036 370.72 52.216 369.694 52.216C368.47 52.216 367.39 51.946 366.454 51.406C365.518 50.866 364.798 50.128 364.294 49.192C363.79 48.238 363.538 47.176 363.538 46.006ZM386.785 44.656V52H384.841V45.088C384.841 44.008 384.562 43.198 384.004 42.658C383.464 42.118 382.762 41.848 381.898 41.848C380.872 41.848 380.044 42.226 379.414 42.982C378.802 43.738 378.496 44.71 378.496 45.898V52H376.552V40.12H378.388V42.064C378.748 41.452 379.279 40.948 379.981 40.552C380.701 40.156 381.493 39.958 382.357 39.958C383.653 39.958 384.715 40.381 385.543 41.227C386.371 42.073 386.785 43.216 386.785 44.656ZM392.576 52H390.632V40.12H392.576V52ZM390.308 35.854C390.308 35.512 390.434 35.224 390.686 34.99C390.956 34.756 391.271 34.639 391.631 34.639C391.991 34.639 392.288 34.756 392.522 34.99C392.774 35.224 392.9 35.512 392.9 35.854C392.9 36.196 392.774 36.493 392.522 36.745C392.27 36.997 391.973 37.123 391.631 37.123C391.271 37.123 390.956 36.997 390.686 36.745C390.434 36.493 390.308 36.196 390.308 35.854ZM395.74 46.006C395.74 44.764 396.01 43.684 396.55 42.766C397.09 41.848 397.828 41.146 398.764 40.66C399.7 40.156 400.744 39.904 401.896 39.904C402.796 39.904 403.642 40.057 404.434 40.363C405.244 40.669 405.919 41.101 406.459 41.659L405.325 43.171C404.929 42.703 404.434 42.334 403.84 42.064C403.246 41.794 402.607 41.659 401.923 41.659C400.717 41.659 399.709 42.055 398.899 42.847C398.089 43.621 397.684 44.665 397.684 45.979C397.684 46.843 397.873 47.617 398.251 48.301C398.629 48.985 399.151 49.516 399.817 49.894C400.483 50.272 401.23 50.461 402.058 50.461C402.76 50.461 403.399 50.326 403.975 50.056C404.569 49.786 405.055 49.417 405.433 48.949L406.648 50.164C406.126 50.794 405.46 51.298 404.65 51.676C403.84 52.036 402.922 52.216 401.896 52.216C400.672 52.216 399.592 51.946 398.656 51.406C397.72 50.866 397 50.128 396.496 49.192C395.992 48.238 395.74 47.176 395.74 46.006Z" fill="#F4F4F4"></path> </svg> 