<?xml version="1.0" encoding="UTF-8"?> <svg xmlns="http://www.w3.org/2000/svg" width="31" height="33" viewBox="0 0 31 33" fill="none"> <g clip-path="url(#clip0_2864_674)"> <path d="M2.88159 19.0571C3.23186 18.9582 3.58232 18.8578 3.93268 18.7593C4.84713 18.5021 5.7586 18.2343 6.66184 17.9385C7.58225 17.6374 8.49295 17.3105 9.36896 16.8921C10.1227 16.532 10.8365 16.1082 11.4516 15.5278C12.219 14.8037 12.6849 13.9079 12.9267 12.8801C13.1473 11.9442 13.1954 10.9917 13.1889 10.0336C13.1805 8.84756 13.0837 7.66675 12.9678 6.48665C12.856 5.34757 12.7189 4.21136 12.5828 3.07498C12.5801 3.0591 12.5834 3.04281 12.5922 3.02945C12.6757 3.34317 12.7589 3.6571 12.8419 3.97124C13.0926 4.91866 13.3472 5.8663 13.6221 6.80521C13.8643 7.63038 14.1192 8.45169 14.4131 9.2597C14.7593 10.2137 15.1551 11.1421 15.688 12.0075C16.5797 13.4542 17.8555 14.3055 19.5067 14.5911C20.393 14.7449 21.2855 14.7809 22.1806 14.7654C23.5111 14.7416 24.835 14.6253 26.1576 14.4918C26.6079 14.4461 27.0584 14.4013 27.5155 14.3782C27.4178 14.4075 27.3208 14.4382 27.2227 14.4652C26.0369 14.7917 24.8544 15.1297 23.686 15.5145C22.5557 15.8863 21.4388 16.2924 20.3932 16.8719C19.649 17.2845 18.9721 17.7839 18.4396 18.4637C17.8942 19.1589 17.5814 19.9599 17.4082 20.8256C17.2231 21.7595 17.1896 22.7063 17.2076 23.6569C17.2337 25.0183 17.3572 26.3737 17.5069 27.7285C17.6046 28.6061 17.7088 29.4824 17.8099 30.3598C17.813 30.3758 17.8098 30.3925 17.801 30.4061C17.7514 30.2213 17.6999 30.0368 17.6521 29.8517C17.3635 28.741 17.0653 27.6322 16.7388 26.5287C16.3452 25.1986 15.9259 23.8768 15.3404 22.6183C14.9612 21.8018 14.5114 21.0318 13.8858 20.3775C13.1036 19.5593 12.1377 19.1035 11.0521 18.8824C10.1949 18.706 9.32839 18.6655 8.4587 18.6713C7.28999 18.6788 6.12637 18.7654 4.9648 18.878C4.28631 18.9434 3.6088 19.014 2.93122 19.0817C2.91434 19.0826 2.89741 19.0826 2.88052 19.0816L2.88159 19.0571Z" fill="#BCF085"></path> </g> <defs> <clipPath id="clip0_2864_674"> <rect width="25.0776" height="27.864" fill="white" transform="translate(0.269043 5.38232) rotate(-10.8102)"></rect> </clipPath> </defs> </svg> 