<?xml version="1.0" encoding="UTF-8"?> <svg xmlns="http://www.w3.org/2000/svg" width="177" height="40" viewBox="0 0 177 40" fill="none"> <path fill-rule="evenodd" clip-rule="evenodd" d="M47.9033 0.797852H40.9157L34.087 38.9037H41.0683L47.9033 0.797852ZM55.5584 28.6406H73.3613C74.0254 27.0124 74.3188 25.2613 74.2211 23.51C74.1233 21.7587 73.6367 20.0496 72.7954 18.5024C71.8507 16.8512 70.4515 15.4947 68.758 14.5881C66.9438 13.6387 64.913 13.1596 62.8576 13.196C60.3624 13.1861 57.9088 13.8234 55.7451 15.0435C53.5813 16.2636 51.7842 18.0232 50.5355 20.1442C49.2631 22.2677 48.6037 24.6913 48.628 27.1549C48.5866 29.4065 49.169 31.6268 50.313 33.5787C51.4293 35.4425 53.0606 36.9577 55.018 37.9486C57.1371 39.0228 59.4939 39.5654 61.8784 39.528C65.6647 39.5956 69.3512 38.3337 72.274 35.9696L69.7308 31.3438C67.6167 32.8308 65.0892 33.6457 62.4888 33.6786C60.8258 33.7553 59.182 33.302 57.8029 32.3863C56.5824 31.4759 55.7761 30.1303 55.5584 28.6406ZM58.1971 20.0506C59.3664 19.1167 60.8356 18.6211 62.3426 18.6522C63.0363 18.6173 63.7298 18.7235 64.3797 18.9641C65.0296 19.2048 65.6219 19.5746 66.1193 20.0506C67.0866 21.0777 67.6068 22.4353 67.569 23.8337H55.7174C56.1297 22.353 56.9953 21.0324 58.1971 20.0506ZM83.9667 37.9367C82.0447 36.9334 80.4494 35.4189 79.3633 33.5668C78.2384 31.6087 77.6676 29.3907 77.7102 27.143C77.6754 24.6818 78.3211 22.2575 79.5784 20.1281C80.8358 17.9987 82.6578 16.2439 84.8504 15.0507C87.0922 13.8182 89.6251 13.1873 92.1941 13.2216C94.5757 13.1751 96.9232 13.7826 98.9719 14.9758C100.903 16.1059 102.424 17.8025 103.321 19.8264L98.1453 23.1788C96.5558 20.6359 94.4852 19.3645 91.9334 19.3645C90.648 19.3514 89.385 19.6955 88.2902 20.3571C87.2023 21.0185 86.3101 21.9484 85.7024 23.054C85.0541 24.2121 84.7232 25.5157 84.7423 26.8371C84.7081 27.7016 84.8484 28.5641 85.155 29.3752C85.4616 30.1862 85.9286 30.9297 86.529 31.5629C87.1185 32.1662 87.8308 32.6409 88.6196 32.956C89.4083 33.2712 90.2558 33.4197 91.1069 33.392C93.5526 33.392 95.6402 32.2912 97.3696 30.0896L101.871 33.8977C100.681 35.6844 99.0407 37.1382 97.109 38.1178C95.0521 39.0803 92.7977 39.5668 90.5193 39.5397C88.2409 39.5127 85.9992 38.9728 83.9667 37.9617V37.9367ZM115.841 30.42C115.836 30.0265 115.87 29.6334 115.943 29.2464L117.755 19.4952H125.175L126.154 13.7518H118.81L119.987 7.40292H112.993L111.854 13.7518H107.817L106.838 19.4952H110.824L109.063 29.2464C108.912 30.0522 108.825 30.8683 108.803 31.6873C108.807 34.2593 109.748 36.207 111.626 37.5305C113.503 38.854 116.03 39.5157 119.204 39.5157C120.244 39.5086 121.281 39.423 122.307 39.2598L123.344 33.5164C122.899 33.5664 122.167 33.5664 121.169 33.5664C119.795 33.6479 118.421 33.4038 117.164 32.8547C116.728 32.6171 116.371 32.2609 116.136 31.829C115.902 31.3971 115.799 30.9078 115.841 30.42ZM147.606 14.0076L146.525 20.0006C145.615 19.8632 144.698 19.7778 143.778 19.7447C142.068 19.6704 140.39 20.2246 139.073 21.2991C137.776 22.4973 136.952 24.107 136.746 25.8439L134.413 38.9037H127.419L131.921 13.7516H138.336L137.872 16.2924C138.724 15.3777 139.764 14.6513 140.924 14.1616C142.084 13.6718 143.336 13.43 144.599 13.452C145.624 13.449 146.64 13.6375 147.593 14.0076H147.606ZM172.607 38.9041L177 13.752L170.051 13.7832L169.53 16.7298C168.674 15.5893 167.521 14.6965 166.191 14.1453C164.663 13.507 163.014 13.1942 161.353 13.2276C158.888 13.1903 156.463 13.8397 154.359 15.1004C152.262 16.3614 150.548 18.1505 149.393 20.282C148.167 22.5216 147.541 25.0309 147.575 27.5735C147.542 29.7005 148.039 31.8031 149.024 33.6977C149.934 35.4482 151.312 36.9223 153.011 37.9615C154.727 39.0082 156.714 39.5479 158.733 39.516C160.226 39.5243 161.705 39.2376 163.082 38.6732C164.395 38.137 165.576 37.3326 166.548 36.3134L166.083 38.9041H172.607ZM167.997 25.6944C168.029 27.7137 167.29 29.6714 165.924 31.1818H165.944C165.321 31.8836 164.549 32.4429 163.682 32.8204C162.815 33.1979 161.875 33.3844 160.927 33.3668C160.099 33.397 159.274 33.254 158.507 32.9472C157.739 32.6405 157.047 32.177 156.476 31.5876C155.304 30.3095 154.692 28.6297 154.772 26.9118C154.752 25.5702 155.071 24.2447 155.701 23.0538C156.288 21.9347 157.165 20.9873 158.244 20.3069C159.319 19.6365 160.569 19.2853 161.842 19.2956C162.67 19.2646 163.495 19.4066 164.262 19.7123C165.029 20.0179 165.722 20.4802 166.293 21.0685C167.457 22.3317 168.068 23.9928 167.997 25.6944ZM33.0007 11.5669L34.088 5.37411H18.7648L14.5239 11.5669H33.0007ZM1.00062 38.3668L2.76183 28.7467L12.2991 14.8253L11.6442 18.3774H31.844L30.814 24.2207H10.576L9.02461 32.7046H29.536L28.4488 38.9037H7.8865H0.905247H0.625488L1.00062 38.3668Z" fill="url(#paint0_linear_2864_569)"></path> <defs> <linearGradient id="paint0_linear_2864_569" x1="3.16874" y1="35.4457" x2="176.706" y2="21.5265" gradientUnits="userSpaceOnUse"> <stop stop-color="#00CAD9"></stop> <stop offset="1" stop-color="#BBEF85"></stop> </linearGradient> </defs> </svg> 