<?xml version="1.0" encoding="UTF-8"?> <svg xmlns="http://www.w3.org/2000/svg" width="157" height="45" viewBox="0 0 157 45" fill="none"> <path fill-rule="evenodd" clip-rule="evenodd" d="M50.8834 10.5197H45.1397L39.5266 41.8422H45.2651L50.8834 10.5197ZM57.1763 33.4055H71.81C72.3559 32.0672 72.5971 30.6278 72.5168 29.1882C72.4364 27.7487 72.0365 26.3438 71.3449 25.072C70.5684 23.7148 69.4182 22.5997 68.0262 21.8545C66.535 21.0741 64.8656 20.6803 63.1761 20.7102C61.1251 20.702 59.1083 21.2259 57.3297 22.2288C55.5511 23.2317 54.0739 24.6781 53.0475 26.4216C52.0016 28.167 51.4596 30.1592 51.4796 32.1842C51.4456 34.035 51.9243 35.8601 52.8646 37.4646C53.7822 38.9966 55.1232 40.2421 56.7321 41.0566C58.4739 41.9396 60.4112 42.3856 62.3713 42.3548C65.4835 42.4104 68.5138 41.3732 70.9163 39.4299L68.8258 35.6275C67.0881 36.8498 65.0104 37.5196 62.873 37.5466C61.506 37.6097 60.1549 37.2371 59.0212 36.4844C58.018 35.7361 57.3552 34.63 57.1763 33.4055ZM59.3452 26.3446C60.3064 25.577 61.5141 25.1696 62.7528 25.1952C63.323 25.1665 63.8931 25.2538 64.4273 25.4516C64.9615 25.6494 65.4483 25.9534 65.8572 26.3446C66.6523 27.1889 67.0799 28.3048 67.0488 29.4543H57.307C57.6459 28.2372 58.3574 27.1516 59.3452 26.3446ZM80.5273 41.0471C78.9475 40.2223 77.6361 38.9775 76.7434 37.4551C75.8187 35.8455 75.3495 34.0224 75.3845 32.1748C75.3559 30.1517 75.8866 28.1589 76.9202 26.4086C77.9537 24.6582 79.4514 23.2159 81.2537 22.2351C83.0964 21.222 85.1784 20.7034 87.2901 20.7316C89.2478 20.6933 91.1773 21.1927 92.8614 22.1735C94.4486 23.1024 95.699 24.497 96.4362 26.1606L92.182 28.9163C90.8754 26.826 89.1733 25.7809 87.0758 25.7809C86.0192 25.7702 84.981 26.053 84.0812 26.5968C83.1869 27.1405 82.4535 27.9048 81.954 28.8137C81.4211 29.7656 81.1492 30.8372 81.1649 31.9233C81.1367 32.6339 81.252 33.3429 81.5041 34.0096C81.7561 34.6763 82.1399 35.2874 82.6335 35.8078C83.1181 36.3037 83.7036 36.6939 84.3519 36.953C85.0002 37.212 85.6968 37.3342 86.3964 37.3114C88.4068 37.3114 90.1228 36.4065 91.5443 34.5968L95.2446 37.727C94.2665 39.1957 92.918 40.3907 91.3301 41.1959C89.6393 41.9871 87.7863 42.387 85.9135 42.3647C84.0407 42.3425 82.198 41.8987 80.5273 41.0676V41.0471ZM106.728 34.8682C106.724 34.5448 106.752 34.2216 106.812 33.9035L108.301 25.8881H114.4L115.205 21.1672H109.169L110.135 15.9485H104.387L103.451 21.1672H100.132L99.3275 25.8881H102.604L101.157 33.9035C101.033 34.5659 100.961 35.2367 100.942 35.9099C100.946 38.0241 101.719 39.6251 103.263 40.713C104.806 41.8009 106.883 42.3448 109.493 42.3448C110.347 42.339 111.2 42.2686 112.043 42.1344L112.895 37.4134C112.529 37.4545 111.928 37.4545 111.108 37.4545C109.978 37.5216 108.849 37.3209 107.815 36.8695C107.457 36.6742 107.164 36.3814 106.971 36.0264C106.778 35.6714 106.694 35.2692 106.728 34.8682ZM132.838 21.3778L131.95 26.3041C131.202 26.1911 130.448 26.1209 129.692 26.0937C128.286 26.0326 126.907 26.4882 125.825 27.3714C124.758 28.3563 124.081 29.6794 123.912 31.1072L121.994 41.8422H116.245L119.945 21.1675H125.218L124.837 23.256C125.537 22.5041 126.392 21.907 127.346 21.5044C128.299 21.1019 129.329 20.9031 130.366 20.9212C131.209 20.9187 132.044 21.0737 132.828 21.3778H132.838ZM153.388 41.8423L157 21.1675L151.287 21.1932L150.859 23.6153C150.155 22.6778 149.208 21.9439 148.115 21.4908C146.859 20.9662 145.503 20.7091 144.138 20.7365C142.112 20.7058 140.119 21.2396 138.389 22.2759C136.666 23.3124 135.256 24.7831 134.307 26.5351C133.299 28.376 132.785 30.4386 132.812 32.5287C132.785 34.277 133.194 36.0053 134.004 37.5627C134.752 39.0016 135.885 40.2133 137.281 41.0674C138.691 41.9278 140.324 42.3714 141.985 42.3452C143.212 42.352 144.427 42.1164 145.559 41.6524C146.638 41.2117 147.609 40.5505 148.408 39.7127L148.026 41.8423H153.388ZM149.599 30.9841C149.626 32.6439 149.018 34.2531 147.896 35.4946H147.911C147.399 36.0715 146.765 36.5313 146.052 36.8415C145.34 37.1518 144.567 37.3051 143.788 37.2907C143.107 37.3155 142.429 37.1979 141.798 36.9458C141.168 36.6937 140.599 36.3127 140.129 35.8282C139.166 34.7776 138.663 33.3968 138.729 31.9847C138.712 30.882 138.974 29.7924 139.492 28.8135C139.974 27.8936 140.695 27.1149 141.582 26.5556C142.466 26.0045 143.493 25.7159 144.54 25.7243C145.22 25.6988 145.898 25.8156 146.529 26.0668C147.16 26.3181 147.729 26.6981 148.199 27.1816C149.155 28.22 149.658 29.5854 149.599 30.9841ZM38.6339 19.3714L39.5276 14.281H26.9321L23.4461 19.3714H38.6339ZM12.3303 41.4004L13.778 33.4927L21.6175 22.0495L21.0792 24.9693H37.6832L36.8366 29.7724H20.2012L18.926 36.7461H35.7861L34.8924 41.8417H17.9904H12.2519H12.022L12.3303 41.4004Z" fill="url(#paint0_linear_2864_964)"></path> <path d="M19.86 0H6.79422L0 22.5785H6.27159L0.522633 44.3874L24.0411 10.0064H15.1563L19.86 0Z" fill="url(#paint1_linear_2864_964)"></path> <defs> <linearGradient id="paint0_linear_2864_964" x1="14.1125" y1="38.9995" x2="156.758" y2="27.558" gradientUnits="userSpaceOnUse"> <stop stop-color="#00CAD9"></stop> <stop offset="1" stop-color="#BBEF85"></stop> </linearGradient> <linearGradient id="paint1_linear_2864_964" x1="19.0761" y1="-1.53945" x2="-1.71583" y2="43.6537" gradientUnits="userSpaceOnUse"> <stop stop-color="#CBF27D"></stop> <stop offset="1" stop-color="#16CED0"></stop> </linearGradient> </defs> </svg> 