<?xml version="1.0" encoding="UTF-8"?> <svg xmlns="http://www.w3.org/2000/svg" width="408" height="84" viewBox="0 0 408 84" fill="none"> <rect x="0.5" y="0.5" width="407" height="83" rx="41.5" stroke="#1DD0CC"></rect> <path d="M46.3791 40.442H55.8831C55.8831 42.548 55.5051 44.339 54.7491 45.815C53.9931 47.273 52.9221 48.38 51.5361 49.136C50.1681 49.892 48.5661 50.27 46.7301 50.27C44.7321 50.27 42.9681 49.847 41.4381 49.001C39.9261 48.155 38.7561 47.003 37.9281 45.545C37.1001 44.069 36.6861 42.422 36.6861 40.604C36.6861 38.858 37.0731 37.247 37.8471 35.771C38.6211 34.277 39.7641 33.08 41.2761 32.18C42.7881 31.28 44.6061 30.83 46.7301 30.83C48.1701 30.83 49.5381 31.055 50.8341 31.505C52.1481 31.937 53.3091 32.648 54.3171 33.638L52.9131 35.312C52.0851 34.412 51.1131 33.764 49.9971 33.368C48.8991 32.972 47.7651 32.774 46.5951 32.774C45.0291 32.774 43.6611 33.143 42.4911 33.881C41.3211 34.619 40.4301 35.591 39.8181 36.797C39.2061 37.985 38.9001 39.263 38.9001 40.631C38.9001 42.071 39.2331 43.376 39.8991 44.546C40.5831 45.716 41.5281 46.643 42.7341 47.327C43.9581 47.993 45.3351 48.326 46.8651 48.326C48.7011 48.326 50.2401 47.831 51.4821 46.841C52.7421 45.833 53.5341 44.366 53.8581 42.44H46.3791V40.442ZM69.7282 44.438H59.9002C59.9722 45.662 60.4042 46.643 61.1962 47.381C62.0062 48.101 63.0052 48.461 64.1932 48.461C64.9492 48.461 65.6512 48.317 66.2992 48.029C66.9652 47.723 67.4962 47.309 67.8922 46.787L69.1612 47.948C68.6032 48.686 67.8742 49.253 66.9742 49.649C66.0742 50.027 65.1112 50.216 64.0852 50.216C62.9152 50.216 61.8622 49.964 60.9262 49.46C59.9902 48.956 59.2522 48.245 58.7122 47.327C58.1902 46.391 57.9292 45.302 57.9292 44.06C57.9292 42.782 58.2082 41.684 58.7662 40.766C59.3242 39.83 60.0622 39.119 60.9802 38.633C61.9162 38.147 62.9242 37.904 64.0042 37.904C65.1742 37.904 66.1912 38.183 67.0552 38.741C67.9192 39.299 68.5762 40.028 69.0262 40.928C69.4942 41.828 69.7282 42.773 69.7282 43.763V44.438ZM60.0082 42.791H67.7032C67.5232 41.873 67.0732 41.126 66.3532 40.55C65.6332 39.956 64.7872 39.659 63.8152 39.659C62.8792 39.659 62.0602 39.938 61.3582 40.496C60.6742 41.054 60.2242 41.819 60.0082 42.791ZM77.7955 48.299V50.027C77.3455 50.099 76.8865 50.135 76.4185 50.135C75.1225 50.135 74.1775 49.829 73.5835 49.217C72.9895 48.587 72.6925 47.57 72.6925 46.166V39.875H70.6675V38.12H72.6925V33.8H74.6365V38.12H77.6875V39.875H74.6365V45.896C74.6365 46.706 74.7715 47.327 75.0415 47.759C75.3295 48.173 75.8875 48.38 76.7155 48.38C77.0575 48.38 77.4175 48.353 77.7955 48.299ZM92.3375 48.299V50.027C91.8875 50.099 91.4285 50.135 90.9605 50.135C89.6645 50.135 88.7195 49.829 88.1255 49.217C87.5315 48.587 87.2345 47.57 87.2345 46.166V39.875H85.2095V38.12H87.2345V33.8H89.1785V38.12H92.2295V39.875H89.1785V45.896C89.1785 46.706 89.3135 47.327 89.5835 47.759C89.8715 48.173 90.4295 48.38 91.2575 48.38C91.5995 48.38 91.9595 48.353 92.3375 48.299ZM93.7369 44.006C93.7369 42.854 93.9979 41.819 94.5199 40.901C95.0599 39.965 95.7889 39.236 96.7069 38.714C97.6249 38.174 98.6599 37.904 99.8119 37.904C100.964 37.904 101.999 38.174 102.917 38.714C103.835 39.236 104.555 39.965 105.077 40.901C105.599 41.819 105.86 42.854 105.86 44.006C105.86 45.176 105.59 46.238 105.05 47.192C104.528 48.128 103.808 48.866 102.89 49.406C101.972 49.946 100.946 50.216 99.8119 50.216C98.6779 50.216 97.6429 49.946 96.7069 49.406C95.7889 48.848 95.0599 48.101 94.5199 47.165C93.9979 46.211 93.7369 45.158 93.7369 44.006ZM103.916 44.006C103.916 42.71 103.538 41.666 102.782 40.874C102.026 40.064 101.036 39.659 99.8119 39.659C98.5879 39.659 97.5889 40.064 96.8149 40.874C96.0589 41.666 95.6809 42.71 95.6809 44.006C95.6809 45.32 96.0679 46.391 96.8419 47.219C97.6159 48.047 98.6059 48.461 99.8119 48.461C101.018 48.461 101.999 48.047 102.755 47.219C103.529 46.391 103.916 45.32 103.916 44.006ZM125.38 46.085L127.837 38.12H129.592V38.39L125.974 50.108H125.029L121.924 42.197L118.792 50.108H117.766L114.148 38.39V38.12H116.092L118.576 46.112L121.654 38.12H122.329L125.38 46.085ZM130.869 44.006C130.869 42.854 131.13 41.819 131.652 40.901C132.192 39.965 132.921 39.236 133.839 38.714C134.757 38.174 135.792 37.904 136.944 37.904C138.096 37.904 139.131 38.174 140.049 38.714C140.967 39.236 141.687 39.965 142.209 40.901C142.731 41.819 142.992 42.854 142.992 44.006C142.992 45.176 142.722 46.238 142.182 47.192C141.66 48.128 140.94 48.866 140.022 49.406C139.104 49.946 138.078 50.216 136.944 50.216C135.81 50.216 134.775 49.946 133.839 49.406C132.921 48.848 132.192 48.101 131.652 47.165C131.13 46.211 130.869 45.158 130.869 44.006ZM141.048 44.006C141.048 42.71 140.67 41.666 139.914 40.874C139.158 40.064 138.168 39.659 136.944 39.659C135.72 39.659 134.721 40.064 133.947 40.874C133.191 41.666 132.813 42.71 132.813 44.006C132.813 45.32 133.2 46.391 133.974 47.219C134.748 48.047 135.738 48.461 136.944 48.461C138.15 48.461 139.131 48.047 139.887 47.219C140.661 46.391 141.048 45.32 141.048 44.006ZM151.746 38.039V39.983C151.26 39.893 150.819 39.848 150.423 39.848C149.379 39.848 148.686 40.172 148.344 40.82C148.002 41.45 147.831 42.404 147.831 43.682V50H145.887V38.12H147.723V39.713C148.317 38.543 149.307 37.958 150.693 37.958C151.107 37.958 151.458 37.985 151.746 38.039ZM162.562 38.39L158.296 43.574L163.642 49.73V50H161.401L156.622 44.465H155.866V50H153.922V31.1H155.866V42.818H156.784L160.483 38.12H162.562V38.39ZM181.36 31.1H183.304V50H181.468V47.786C181.126 48.506 180.568 49.091 179.794 49.541C179.02 49.991 178.138 50.216 177.148 50.216C176.122 50.216 175.168 49.964 174.286 49.46C173.404 48.956 172.702 48.245 172.18 47.327C171.658 46.391 171.397 45.302 171.397 44.06C171.397 42.836 171.649 41.756 172.153 40.82C172.675 39.884 173.368 39.164 174.232 38.66C175.114 38.156 176.086 37.904 177.148 37.904C178.174 37.904 179.047 38.111 179.767 38.525C180.505 38.921 181.036 39.416 181.36 40.01V31.1ZM181.36 44.141V43.871C181.36 43.133 181.207 42.449 180.901 41.819C180.595 41.189 180.136 40.685 179.524 40.307C178.93 39.911 178.219 39.713 177.391 39.713C176.221 39.713 175.267 40.1 174.529 40.874C173.791 41.63 173.422 42.683 173.422 44.033C173.422 45.347 173.782 46.409 174.502 47.219C175.222 48.011 176.167 48.407 177.337 48.407C178.165 48.407 178.885 48.209 179.497 47.813C180.109 47.399 180.568 46.868 180.874 46.22C181.198 45.554 181.36 44.861 181.36 44.141ZM194.984 38.12H196.928V50H195.092V48.11C194.75 48.722 194.246 49.217 193.58 49.595C192.914 49.973 192.122 50.162 191.204 50.162C189.872 50.162 188.81 49.721 188.018 48.839C187.244 47.957 186.857 46.652 186.857 44.924V38.12H188.801V44.492C188.801 45.806 189.017 46.778 189.449 47.408C189.899 48.02 190.583 48.326 191.501 48.326C192.599 48.326 193.454 47.948 194.066 47.192C194.678 46.418 194.984 45.428 194.984 44.222V38.12ZM206.558 38.039V39.983C206.072 39.893 205.631 39.848 205.235 39.848C204.191 39.848 203.498 40.172 203.156 40.82C202.814 41.45 202.643 42.404 202.643 43.682V50H200.699V38.12H202.535V39.713C203.129 38.543 204.119 37.958 205.505 37.958C205.919 37.958 206.27 37.985 206.558 38.039ZM210.948 50H209.004V38.12H210.948V50ZM208.68 33.854C208.68 33.512 208.806 33.224 209.058 32.99C209.328 32.756 209.643 32.639 210.003 32.639C210.363 32.639 210.66 32.756 210.894 32.99C211.146 33.224 211.272 33.512 211.272 33.854C211.272 34.196 211.146 34.493 210.894 34.745C210.642 34.997 210.345 35.123 210.003 35.123C209.643 35.123 209.328 34.997 209.058 34.745C208.806 34.493 208.68 34.196 208.68 33.854ZM225.237 42.656V50H223.293V43.088C223.293 42.008 223.014 41.198 222.456 40.658C221.916 40.118 221.214 39.848 220.35 39.848C219.324 39.848 218.496 40.226 217.866 40.982C217.254 41.738 216.948 42.71 216.948 43.898V50H215.004V38.12H216.84V40.064C217.2 39.452 217.731 38.948 218.433 38.552C219.153 38.156 219.945 37.958 220.809 37.958C222.105 37.958 223.167 38.381 223.995 39.227C224.823 40.073 225.237 41.216 225.237 42.656ZM237.994 38.12H239.83V50.459C239.83 51.791 239.551 52.916 238.993 53.834C238.435 54.752 237.679 55.436 236.725 55.886C235.789 56.354 234.754 56.588 233.62 56.588C231.568 56.588 229.912 55.832 228.652 54.32L229.894 52.889C230.92 54.131 232.198 54.752 233.728 54.752C235.042 54.752 236.059 54.338 236.779 53.51C237.517 52.682 237.886 51.494 237.886 49.946V48.002C237.508 48.668 236.95 49.208 236.212 49.622C235.474 50.018 234.628 50.216 233.674 50.216C232.648 50.216 231.694 49.964 230.812 49.46C229.93 48.956 229.228 48.245 228.706 47.327C228.184 46.391 227.923 45.302 227.923 44.06C227.923 42.836 228.175 41.756 228.679 40.82C229.201 39.884 229.894 39.164 230.758 38.66C231.64 38.156 232.612 37.904 233.674 37.904C234.754 37.904 235.672 38.129 236.428 38.579C237.202 39.029 237.724 39.578 237.994 40.226V38.12ZM237.886 44.141V43.871C237.886 43.133 237.733 42.449 237.427 41.819C237.121 41.189 236.662 40.685 236.05 40.307C235.456 39.911 234.745 39.713 233.917 39.713C232.747 39.713 231.793 40.1 231.055 40.874C230.317 41.63 229.948 42.683 229.948 44.033C229.948 45.347 230.308 46.409 231.028 47.219C231.748 48.011 232.693 48.407 233.863 48.407C234.691 48.407 235.411 48.209 236.023 47.813C236.635 47.399 237.094 46.868 237.4 46.22C237.724 45.554 237.886 44.861 237.886 44.141ZM255.851 48.299V50.027C255.401 50.099 254.942 50.135 254.474 50.135C253.178 50.135 252.233 49.829 251.639 49.217C251.045 48.587 250.748 47.57 250.748 46.166V39.875H248.723V38.12H250.748V33.8H252.692V38.12H255.743V39.875H252.692V45.896C252.692 46.706 252.827 47.327 253.097 47.759C253.385 48.173 253.943 48.38 254.771 48.38C255.113 48.38 255.473 48.353 255.851 48.299ZM264 38.039V39.983C263.514 39.893 263.073 39.848 262.677 39.848C261.633 39.848 260.94 40.172 260.598 40.82C260.256 41.45 260.085 42.404 260.085 43.682V50H258.141V38.12H259.977V39.713C260.571 38.543 261.561 37.958 262.947 37.958C263.361 37.958 263.712 37.985 264 38.039ZM275.357 38.12H277.193V50H275.357V47.786C275.015 48.506 274.457 49.091 273.683 49.541C272.909 49.991 272.027 50.216 271.037 50.216C270.011 50.216 269.057 49.964 268.175 49.46C267.293 48.956 266.591 48.245 266.069 47.327C265.547 46.391 265.286 45.302 265.286 44.06C265.286 42.836 265.538 41.756 266.042 40.82C266.564 39.884 267.257 39.164 268.121 38.66C269.003 38.156 269.975 37.904 271.037 37.904C272.117 37.904 273.035 38.129 273.791 38.579C274.565 39.029 275.087 39.578 275.357 40.226V38.12ZM275.249 44.141V43.871C275.249 43.133 275.096 42.449 274.79 41.819C274.484 41.189 274.025 40.685 273.413 40.307C272.819 39.911 272.108 39.713 271.28 39.713C270.11 39.713 269.156 40.1 268.418 40.874C267.68 41.63 267.311 42.683 267.311 44.033C267.311 45.347 267.671 46.409 268.391 47.219C269.111 48.011 270.056 48.407 271.226 48.407C272.054 48.407 272.774 48.209 273.386 47.813C273.998 47.399 274.457 46.868 274.763 46.22C275.087 45.554 275.249 44.861 275.249 44.141ZM290.979 37.013V38.12H293.922V39.875H290.979V50H289.035V39.875H283.338V50H281.394V39.875H279.369V38.12H281.394V36.473C281.394 33.071 282.897 31.37 285.903 31.37C287.793 31.37 289.062 32.054 289.71 33.422C290.214 31.514 291.591 30.56 293.841 30.56C295.533 30.56 296.748 31.055 297.486 32.045C298.242 33.017 298.62 34.304 298.62 35.906H296.676C296.676 34.682 296.46 33.782 296.028 33.206C295.596 32.612 294.867 32.315 293.841 32.315C293.103 32.315 292.527 32.477 292.113 32.801C291.699 33.107 291.402 33.602 291.222 34.286C291.06 34.952 290.979 35.861 290.979 37.013ZM283.338 38.12H289.035V37.553C288.945 35.951 288.666 34.817 288.198 34.151C287.748 33.467 286.974 33.125 285.876 33.125C285.21 33.125 284.688 33.26 284.31 33.53C283.95 33.782 283.698 34.187 283.554 34.745C283.41 35.285 283.338 36.041 283.338 37.013V38.12ZM298.62 50H296.676V38.12H298.62V50ZM301.502 44.006C301.502 42.764 301.772 41.684 302.312 40.766C302.852 39.848 303.59 39.146 304.526 38.66C305.462 38.156 306.506 37.904 307.658 37.904C308.558 37.904 309.404 38.057 310.196 38.363C311.006 38.669 311.681 39.101 312.221 39.659L311.087 41.171C310.691 40.703 310.196 40.334 309.602 40.064C309.008 39.794 308.369 39.659 307.685 39.659C306.479 39.659 305.471 40.055 304.661 40.847C303.851 41.621 303.446 42.665 303.446 43.979C303.446 44.843 303.635 45.617 304.013 46.301C304.391 46.985 304.913 47.516 305.579 47.894C306.245 48.272 306.992 48.461 307.82 48.461C308.522 48.461 309.161 48.326 309.737 48.056C310.331 47.786 310.817 47.417 311.195 46.949L312.41 48.164C311.888 48.794 311.222 49.298 310.412 49.676C309.602 50.036 308.684 50.216 307.658 50.216C306.434 50.216 305.354 49.946 304.418 49.406C303.482 48.866 302.762 48.128 302.258 47.192C301.754 46.238 301.502 45.176 301.502 44.006ZM319.18 56.615V54.86C319.288 54.878 319.45 54.887 319.666 54.887C321.034 54.887 321.709 54.05 321.691 52.376V38.12H323.635V52.106C323.635 53.618 323.32 54.752 322.69 55.508C322.06 56.264 321.034 56.642 319.612 56.642C319.414 56.642 319.27 56.633 319.18 56.615ZM321.367 33.854C321.367 33.512 321.493 33.224 321.745 32.99C322.015 32.756 322.33 32.639 322.69 32.639C323.05 32.639 323.347 32.756 323.581 32.99C323.833 33.224 323.959 33.512 323.959 33.854C323.959 34.196 323.833 34.493 323.581 34.745C323.329 34.997 323.032 35.123 322.69 35.123C322.33 35.123 322.015 34.997 321.745 34.745C321.493 34.493 321.367 34.196 321.367 33.854ZM336.603 38.12H338.439V50H336.603V47.786C336.261 48.506 335.703 49.091 334.929 49.541C334.155 49.991 333.273 50.216 332.283 50.216C331.257 50.216 330.303 49.964 329.421 49.46C328.539 48.956 327.837 48.245 327.315 47.327C326.793 46.391 326.532 45.302 326.532 44.06C326.532 42.836 326.784 41.756 327.288 40.82C327.81 39.884 328.503 39.164 329.367 38.66C330.249 38.156 331.221 37.904 332.283 37.904C333.363 37.904 334.281 38.129 335.037 38.579C335.811 39.029 336.333 39.578 336.603 40.226V38.12ZM336.495 44.141V43.871C336.495 43.133 336.342 42.449 336.036 41.819C335.73 41.189 335.271 40.685 334.659 40.307C334.065 39.911 333.354 39.713 332.526 39.713C331.356 39.713 330.402 40.1 329.664 40.874C328.926 41.63 328.557 42.683 328.557 44.033C328.557 45.347 328.917 46.409 329.637 47.219C330.357 48.011 331.302 48.407 332.472 48.407C333.3 48.407 334.02 48.209 334.632 47.813C335.244 47.399 335.703 46.868 336.009 46.22C336.333 45.554 336.495 44.861 336.495 44.141ZM359.137 42.467V50H357.193V43.169C357.193 42.053 356.932 41.225 356.41 40.685C355.888 40.127 355.249 39.848 354.493 39.848C353.593 39.848 352.891 40.208 352.387 40.928C351.901 41.648 351.658 42.575 351.658 43.709V50H349.714V42.899C349.714 41.873 349.489 41.108 349.039 40.604C348.607 40.1 348.031 39.848 347.311 39.848C346.375 39.848 345.619 40.244 345.043 41.036C344.467 41.81 344.179 42.764 344.179 43.898V50H342.235V38.12H344.071V40.037C344.413 39.425 344.89 38.93 345.502 38.552C346.132 38.156 346.816 37.958 347.554 37.958C348.256 37.958 348.904 38.147 349.498 38.525C350.11 38.903 350.587 39.416 350.929 40.064C351.289 39.434 351.793 38.93 352.441 38.552C353.107 38.156 353.845 37.958 354.655 37.958C355.429 37.958 356.158 38.147 356.842 38.525C357.526 38.885 358.075 39.407 358.489 40.091C358.921 40.775 359.137 41.567 359.137 42.467ZM361.744 48.299L362.824 46.895C363.796 47.975 365.02 48.515 366.496 48.515C367.306 48.515 367.963 48.353 368.467 48.029C368.989 47.705 369.25 47.255 369.25 46.679C369.25 46.121 369.016 45.707 368.548 45.437C368.08 45.167 367.342 44.888 366.334 44.6C365.488 44.366 364.804 44.141 364.282 43.925C363.778 43.709 363.346 43.385 362.986 42.953C362.626 42.521 362.446 41.954 362.446 41.252C362.446 40.154 362.869 39.317 363.715 38.741C364.561 38.147 365.632 37.85 366.928 37.85C367.828 37.85 368.584 37.994 369.196 38.282C369.826 38.552 370.384 38.921 370.87 39.389L369.736 40.847C369.376 40.433 368.971 40.127 368.521 39.929C368.089 39.713 367.549 39.605 366.901 39.605C366.127 39.605 365.515 39.749 365.065 40.037C364.615 40.307 364.39 40.667 364.39 41.117C364.39 41.639 364.606 42.017 365.038 42.251C365.488 42.485 366.19 42.719 367.144 42.953C367.99 43.169 368.683 43.385 369.223 43.601C369.763 43.817 370.222 44.159 370.6 44.627C370.996 45.077 371.194 45.698 371.194 46.49C371.194 47.696 370.744 48.632 369.844 49.298C368.962 49.946 367.855 50.27 366.523 50.27C364.651 50.27 363.058 49.613 361.744 48.299Z" fill="#F4F4F4"></path> </svg> 