<?xml version="1.0" encoding="UTF-8"?> <svg xmlns="http://www.w3.org/2000/svg" width="23" height="25" viewBox="0 0 23 25" fill="none"> <path d="M0.0270545 8.90493C0.356012 8.9859 0.685796 9.06579 1.01461 9.14717C1.87291 9.35944 2.73355 9.56204 3.60009 9.73893C4.48293 9.91949 5.36947 10.0754 6.26889 10.1439C7.0428 10.2027 7.8129 10.1935 8.57301 10.0169C9.52139 9.79658 10.3018 9.30516 10.9595 8.60873C11.5586 7.97483 12.0252 7.24983 12.4498 6.49572C12.9752 5.56204 13.4264 4.59244 13.8618 3.6148C14.2821 2.67112 14.6806 1.71826 15.0799 0.76568C15.0848 0.752006 15.0949 0.740769 15.108 0.734277C15.0351 1.01803 14.9618 1.30182 14.8882 1.58565C14.6668 2.44193 14.4484 3.30013 14.2504 4.16069C14.0769 4.91727 13.9154 5.67654 13.7916 6.44307C13.6447 7.34768 13.5497 8.25476 13.5944 9.17444C13.6695 10.7123 14.324 11.9572 15.5373 12.9285C16.1883 13.4502 16.8972 13.8824 17.6313 14.2754C18.7229 14.859 19.8506 15.3671 20.985 15.861C21.3713 16.029 21.7574 16.1979 22.1391 16.3866C22.0466 16.3654 21.954 16.3455 21.8622 16.3223C20.7524 16.0415 19.64 15.7713 18.5181 15.5442C17.4331 15.324 16.3435 15.1369 15.234 15.1179C14.4442 15.1046 13.6702 15.1898 12.9326 15.4816C12.1776 15.7799 11.564 16.2663 11.0348 16.8666C10.4654 17.515 10.0134 18.2422 9.6014 18.9956C9.01172 20.0748 8.50381 21.1934 8.01746 22.3233C7.70309 23.0555 7.39453 23.7897 7.08292 24.5234C7.07824 24.5374 7.0682 24.549 7.05494 24.5557C7.09754 24.3884 7.1385 24.2204 7.18276 24.0536C7.44671 23.0522 7.70195 22.0479 7.93192 21.035C8.20901 19.814 8.46151 18.5879 8.55052 17.3362C8.60883 16.5244 8.589 15.7172 8.37438 14.921C8.1061 13.9254 7.52588 13.1309 6.74314 12.4661C6.12596 11.9399 5.44014 11.5159 4.73102 11.1268C3.77821 10.6037 2.79399 10.1449 1.79986 9.70736C1.21929 9.45156 0.637212 9.20025 0.0563712 8.94662C0.0422231 8.93974 0.0284778 8.93207 0.0152025 8.92365L0.0270545 8.90493Z" fill="#1DD0CC"></path> </svg> 