<?xml version="1.0" encoding="UTF-8"?> <svg xmlns="http://www.w3.org/2000/svg" width="41" height="42" viewBox="0 0 41 42" fill="none"> <g clip-path="url(#clip0_2864_668)"> <path d="M5.37782 15.9147C5.81761 16.0229 6.25852 16.1297 6.69813 16.2385C7.84562 16.5223 8.99624 16.7932 10.1548 17.0297C11.3351 17.2711 12.5203 17.4795 13.7228 17.5711C14.7574 17.6498 15.787 17.6375 16.8032 17.4013C18.0712 17.1068 19.1146 16.4498 19.9938 15.5187C20.7948 14.6712 21.4185 13.7019 21.9863 12.6937C22.6887 11.4455 23.2919 10.1492 23.8741 8.84211C24.436 7.58047 24.9687 6.30655 25.5025 5.03302C25.5091 5.01473 25.5226 4.99971 25.5401 4.99103C25.4426 5.37039 25.3447 5.7498 25.2463 6.12927C24.9502 7.27405 24.6582 8.42142 24.3936 9.57193C24.1616 10.5834 23.9457 11.5985 23.7801 12.6233C23.5838 13.8327 23.4567 15.0455 23.5165 16.275C23.617 18.3311 24.4919 19.9954 26.114 21.2939C26.9844 21.9915 27.9321 22.5693 28.9136 23.0947C30.373 23.8749 31.8807 24.5542 33.3973 25.2145C33.9138 25.4392 34.4299 25.6649 34.9402 25.9172C34.8165 25.8889 34.6928 25.8623 34.57 25.8312C33.0863 25.4559 31.5991 25.0946 30.0992 24.7909C28.6486 24.4966 27.1918 24.2464 25.7085 24.2211C24.6527 24.2033 23.6179 24.3171 22.6317 24.7073C21.6223 25.1061 20.8021 25.7564 20.0945 26.5589C19.3332 27.4258 18.7289 28.398 18.1781 29.4053C17.3898 30.8481 16.7107 32.3435 16.0605 33.8542C15.6402 34.8332 15.2277 35.8147 14.8111 36.7956C14.8048 36.8143 14.7914 36.8298 14.7737 36.8388C14.8306 36.6151 14.8854 36.3906 14.9446 36.1675C15.2974 34.8287 15.6387 33.486 15.9461 32.1318C16.3166 30.4994 16.6542 28.8602 16.7732 27.1868C16.8511 26.1015 16.8246 25.0222 16.5377 23.9578C16.179 22.6268 15.4033 21.5645 14.3568 20.6758C13.5317 19.9722 12.6148 19.4054 11.6667 18.8852C10.3929 18.1858 9.07704 17.5725 7.74795 16.9875C6.97177 16.6455 6.19356 16.3095 5.41701 15.9704C5.3981 15.9612 5.37972 15.951 5.36197 15.9397L5.37782 15.9147Z" fill="#1DD0CC"></path> </g> <defs> <clipPath id="clip0_2864_668"> <rect width="31.2128" height="33.6138" fill="white" transform="translate(10.7441) rotate(18.6395)"></rect> </clipPath> </defs> </svg> 