<?xml version="1.0" encoding="UTF-8"?> <svg xmlns="http://www.w3.org/2000/svg" width="26" height="28" viewBox="0 0 26 28" fill="none"> <g clip-path="url(#clip0_2864_625)"> <path d="M4.06597 9.87458C4.33233 9.95797 4.59944 10.0405 4.86566 10.1242C5.56056 10.3426 6.258 10.553 6.96193 10.7419C7.67907 10.9347 8.40081 11.1068 9.13866 11.2056C9.77355 11.2905 10.4096 11.3178 11.0478 11.2032C11.8442 11.0603 12.519 10.6806 13.1053 10.1222C13.6394 9.61387 14.0698 9.02258 14.4675 8.4048C14.9595 7.63988 15.3926 6.84123 15.8132 6.03507C16.2191 5.25692 16.6076 4.47002 16.9968 3.6834C17.0018 3.67207 17.0108 3.66303 17.022 3.65815C16.944 3.89456 16.8658 4.13099 16.7873 4.36744C16.5509 5.0808 16.3169 5.79593 16.0996 6.51398C15.909 7.14529 15.7281 7.77942 15.5779 8.42141C15.4 9.17901 15.2647 9.94104 15.2439 10.7201C15.2096 12.0229 15.6715 13.1044 16.6118 13.9803C17.1162 14.4507 17.6741 14.8481 18.2552 15.2136C19.1193 15.7564 20.018 16.237 20.923 16.7059C21.2313 16.8655 21.5393 17.0257 21.8424 17.2026C21.7674 17.1804 21.6923 17.1594 21.6179 17.1356C20.7198 16.8479 19.8189 16.5689 18.9074 16.3259C18.0259 16.0905 17.1385 15.8828 16.2243 15.8162C15.5735 15.769 14.9294 15.8057 14.3025 16.0187C13.6608 16.2364 13.1241 16.6194 12.6498 17.1024C12.1393 17.6243 11.7207 18.2181 11.3336 18.8359C10.7793 19.7208 10.2901 20.6427 9.81798 21.5753C9.51268 22.1796 9.21205 22.7859 8.90895 23.3915C8.9042 23.4031 8.89519 23.4125 8.88382 23.4176C8.92947 23.2781 8.97379 23.1381 9.02077 22.9992C9.30134 22.1651 9.57491 21.3282 9.82816 20.4829C10.1333 19.4639 10.4185 18.4396 10.5705 17.3861C10.6695 16.7029 10.7037 16.0199 10.5765 15.3375C10.4176 14.4842 9.98861 13.7864 9.38441 13.1892C8.90814 12.7165 8.36882 12.327 7.8081 11.966C7.05469 11.4806 6.27134 11.0482 5.47847 10.6333C5.01546 10.3907 4.55092 10.1519 4.08755 9.91114C4.07631 9.90468 4.06545 9.89758 4.05502 9.88986L4.06597 9.87458Z" fill="#BCF085"></path> </g> <defs> <clipPath id="clip0_2864_625"> <rect width="19.2301" height="21.3668" fill="white" transform="translate(8.12402) rotate(22.3473)"></rect> </clipPath> </defs> </svg> 