<?xml version="1.0" encoding="UTF-8"?> <svg xmlns="http://www.w3.org/2000/svg" width="24" height="25" viewBox="0 0 24 25" fill="none"> <g clip-path="url(#clip0_2864_621)"> <path d="M1.99537 14.1568C2.27171 14.0796 2.54821 14.0012 2.82462 13.9243C3.54605 13.7236 4.26518 13.5147 4.97797 13.2844C5.7043 13.0501 6.4231 12.796 7.115 12.472C7.71032 12.1932 8.27449 11.8658 8.7616 11.4191C9.36938 10.8618 9.74044 10.1744 9.93556 9.38695C10.1136 8.66995 10.1558 7.94099 10.1551 7.20799C10.1539 6.3006 10.083 5.3976 9.99718 4.49523C9.91431 3.62422 9.81152 2.75552 9.70946 1.88668C9.7074 1.87455 9.71015 1.86207 9.71713 1.85181C9.78146 2.09147 9.84557 2.33129 9.90946 2.57127C10.1026 3.29503 10.2988 4.01895 10.5111 4.7361C10.6981 5.36637 10.895 5.99363 11.1228 6.61055C11.3911 7.3389 11.6987 8.04752 12.1145 8.70725C12.8102 9.81027 13.8112 10.456 15.1104 10.6673C15.8078 10.7811 16.5106 10.8047 17.2157 10.789C18.2638 10.7649 19.3071 10.6702 20.3494 10.5622C20.7043 10.5253 21.0594 10.4891 21.4195 10.4694C21.3424 10.4923 21.2659 10.5162 21.1885 10.5373C20.253 10.7922 19.32 11.056 18.398 11.3555C17.5061 11.6449 16.6244 11.9605 15.7982 12.4084C15.2102 12.7274 14.6747 13.1124 14.2522 13.6348C13.8195 14.1691 13.5695 14.7833 13.429 15.4464C13.279 16.1617 13.2483 16.8863 13.2581 17.6134C13.2725 18.6549 13.3635 19.6914 13.4752 20.7273C13.5482 21.3983 13.6263 22.0683 13.7019 22.7391C13.7043 22.7514 13.7017 22.7641 13.6947 22.7746C13.6565 22.6334 13.6168 22.4925 13.58 22.3511C13.3577 21.5026 13.1279 20.6555 12.8758 19.8127C12.5718 18.7968 12.2476 17.7873 11.7922 16.827C11.4972 16.204 11.1465 15.6168 10.6568 15.1189C10.0444 14.4963 9.28567 14.1519 8.43159 13.9874C7.75729 13.8562 7.07493 13.829 6.3899 13.8372C5.46935 13.8481 4.55243 13.9195 3.63702 14.0106C3.10231 14.0636 2.56835 14.1206 2.03435 14.1754C2.02105 14.1762 2.00771 14.1762 1.99442 14.1755L1.99537 14.1568Z" fill="#1DD0CC"></path> </g> <defs> <clipPath id="clip0_2864_621"> <rect width="19.7736" height="21.2946" fill="white" transform="translate(0 3.70605) rotate(-10.8028)"></rect> </clipPath> </defs> </svg> 